<?xml version="1.0" encoding="utf-8"?>
<!-- Generator: Adobe Illustrator 25.4.1, SVG Export Plug-In . SVG Version: 6.00 Build 0)  -->
<svg version="1.1" id="Calque_1" xmlns="http://www.w3.org/2000/svg" xmlns:xlink="http://www.w3.org/1999/xlink" x="0px" y="0px"
	 width="599px" height="340px" viewBox="0 0 599 340" style="enable-background:new 0 0 599 340;" xml:space="preserve">
<style type="text/css">
	.st0{opacity:0.4;fill:#82B7A8;enable-background:new    ;}
	.st1{fill:#2C6EE5;}
	.st2{fill:#FFC200;}
	.st3{fill:#0F0F0F;}
	.st4{fill:#FF9100;}
	.st5{fill:#FFFFFF;}
	.st6{fill:#EF8675;}
	.st7{fill:#CC064E;}
	.st8{fill:#FFB19C;}
	.st9{fill:#1F266B;}
	.st10{fill:#82B7A8;}
	.st11{fill:#A80045;}
	.st12{fill:#0E52A5;}
	.st13{fill:#B5B5B5;}
	.st14{fill:#7A2305;}
	.st15{fill:#C1592B;}
	.st16{fill:#E26F3B;}
	.st17{fill:#C1C1C1;}
</style>
<g id="Calque_2_00000083081921670615160170000010851707193593003395_">
	<path class="st0" d="M370.1,81.2C280,123.1,99,42.9,48.7,77.6c-40.1,27.7,2.5,128.5,88.5,188.1c110.7,76.8,300.5,90.1,388.6,21.5
		c63.4-49.4,81.6-147,19.5-190.7c-32.9-23.1-95.7-36.3-143.8-26.3C385,73.8,375,78.9,370.1,81.2z"/>
	<path class="st0" d="M160.6,164.2c44.1-36.2,152.2-12,175.4-38.9c18.5-21.4-16.6-75.4-70.6-99.5C196.1-5.3,91.2,11,51.4,62.6
		c-28.6,37.2-26.9,97,12.1,114.8c20.6,9.4,56.4,9.2,81.4-2.8C153.4,170.5,158.3,166.2,160.6,164.2z"/>
</g>
<g id="Layer_1">
	<path class="st1" d="M101.6,93.4C101.6,93.3,101.6,93.3,101.6,93.4L101.6,93.4C101.7,93.4,101.6,93.4,101.6,93.4z"/>
	<path class="st1" d="M83.8,84.2c2.1-0.7,4.9-1.8,5.1-1.5c1.5,2.6,0.2,4.8-1.7,7.8C86,88.3,85.1,86.6,83.8,84.2z"/>
	<path class="st1" d="M75.6,81.7c0.3,0,0.6,0.1,0.9,0.1c0,2.6,0,5.1,0,7.6c-0.8,0-1.8,0-3.7,0C73.8,86.6,74.7,84.1,75.6,81.7z"/>
	<path class="st1" d="M101.6,93.3L101.6,93.3L101.6,93.3L101.6,93.3z"/>
	<path class="st1" d="M74.9,93.9C74.9,93.9,74.9,94,74.9,93.9C74.9,94,74.9,94,74.9,93.9C74.9,94,74.9,93.9,74.9,93.9z"/>
	<path class="st1" d="M77.7,95.2c-0.2,0.4-0.4,0.8-0.9,1.9c-0.7-1.2-1.2-2-1.9-3C75.8,94.2,76.8,94.8,77.7,95.2z"/>
	<path class="st1" d="M69.1,97.2c1.6-1.1,3-2.7,4.7-3.3c0.3-0.1,0.7-0.1,1.1,0C73,95.7,71.5,97,70,98.3C69.7,98,69.4,97.6,69.1,97.2
		z"/>
	<path class="st1" d="M78.4,105.6c-0.1,1.6-0.3,3.2-0.4,4.8c-0.5,0-0.9-0.1-1.4-0.1C74.8,108.6,76.8,107.1,78.4,105.6z"/>
	<g>
		<path class="st2" d="M166.9,232.6c0,0,0.1,0.8-0.4,2c-0.6,1.5-1.7,3.5-0.2,4.7c1.1,0.9,4.9,3.5,4.9,3.5s0,2.5,0,4.6
			c0,2.4,0,5.8,0.2,7.5s0.7,4.4-1.3,5.3c-3.3,1.5-5.6-0.6-7-3.2s-1.2-7.7-1.3-9.2c-0.2-1.5-0.3-4.5-1.6-6.8c-1.8-3.2-1-4.8,0.1-6.4
			C161.8,232.6,164.1,233.2,166.9,232.6z"/>
		<path class="st3" d="M171.2,258.7c0,0-1.3-1-3.1-0.8c-1.8,0.3-3.3,0.8-4.3-2c-1-2.8-0.7-10.2-1.8-13c-1.2-2.8-2.8-6.4-2.8-6.4
			s-1.2,1.4-0.1,3.8c1.1,2.4,2.4,4.7,2.1,7.3c-0.3,2.6-0.9,10.3,3.8,12.1C169.5,261.6,170.8,260,171.2,258.7z"/>
		<path class="st4" d="M165.1,254.4c0,0,4.2-6.8,0.7-11.4c-4.4-5.8-3.4-9.8-3.4-9.8l-1.6,0.7c0,0-1.1,3.3,1.3,7
			c1.4,2.2,2.1,3.6,2.9,6C165.7,248.8,165.1,254.4,165.1,254.4z"/>
		<path class="st5" d="M171.1,242.8c0.3,2.5-0.2,5-0.3,7.2s-2,1.9-2.1-0.5c-0.1-2.7,0.4-8.1,0.4-8.1S170.9,242.3,171.1,242.8z"/>
	</g>
	<path class="st6" d="M108.3,166.3c0,0,5.2,12.2,5,16.4c-0.3,4.2-6.5,4.5-10.4,3.8c-4-0.7-33.2-4.3-33.2-4.3l-5.1-3l1.1-12
		L108.3,166.3z"/>
	<path class="st7" d="M69.6,182.3c0,0-3.5,1.7-4.1,4.5c-0.4,1.9-0.8,4.1-3.2,4.4c-2.5,0.4-3.8-4.2-3.6-9s-3.5-8.8-1.1-11.6
		c1.7-1.9,8.2-3.5,8.2-3.5s-0.6,7.4,1,10C67.4,178.4,69.6,182.3,69.6,182.3z"/>
	<path class="st8" d="M92,167.2c0,0,3.1,3.4,7.3,10c4.2,6.6,7.4,18.6,9.5,24.4c2.1,5.8,11.3,27.2,11.3,27.2l-7.3,4.7
		c0,0-10.3-13.1-15.2-23.7c-4.8-10.3-4.7-15.4-7.4-18.5c-2.7-3.1-18-17.2-18-17.2S78.9,158.6,92,167.2z"/>
	<path class="st9" d="M93.7,138.7c0,0,7,9.2,9.1,12.1c2.2,2.9,10.4,18.6,10.4,18.6s-2.4,3.9-3.9,5.1c-1.6,1.2-10,2.8-10,2.8l-7.3-10
		c0,0-7-3.6-11.8,0s-11.3,10-11.3,10s-9.2-6.5-8.8-17c0.2-5.5,0.4-11.7,0.4-11.7L93.7,138.7z"/>
	<path class="st6" d="M133.8,130.5c0,0,6.7,5.4,9.4,7c2.6,1.6,1.9,4.4-0.6,7c-1.4,1.5-3,1.2-4.4,0.5c-0.5-0.2-0.9-1.1,1.1-1.9
		c1.1-0.4-0.6-3.2-0.9-3.4c-1.6-1-3.6-0.8-2.8,0c2.8,2.5,1.9,3.6,1.4,3.4c-1.2-0.5-5.1-1.9-5.2-2.6c-0.3-1.2-2.1-3.2-2.1-3.2
		L133.8,130.5z"/>
	<path class="st9" d="M87.4,92.5c0,0,6.7-1.4,11.9,6.3c1.1,1.6,13.7,13.9,16.8,15.9c3.1,2,3.7,6,4.7,7.7s4.3,0.3,5.2,1.3
		c3.1,3.4,11,9.4,11,9.4l-7.3,4.2c0,0-9.4-1.6-14.2-4.2C105,127.2,94,113.8,94,113.8s-3.2,11.8-2.8,13.4c0.4,1.6,2.7,5.5,4,7.7
		c2.2,3.9,0.1,6.2,0.1,6.2l1.8,2.4c0,0-7.5,8.2-11.3,9.8c-9.1,4-25.8-1.4-25.8-1.4s-1.3-12,0.4-22.7c0.5-2.9,1.6-11.5,1.6-11.5
		s-7.5-0.7-11.8,2.3c-2.1,1.5-5.9,1.3-7.8,3.9c-1.7,2.4-4.5-1.4-4.9,0.4c-0.4,2.1-2.4,4.3-3.9,6.2c-0.9,1.1-5.4,10.5-5.4,10.5
		l-9.7-1.5c0,0,2.7-14.3,7.8-18.8c1.1-1,1.6-3.9,3.5-5.9c0.8-0.8,2.7-0.3,3.6-1.3c1.3-1.4,0.2-3,1.1-3.8c2-1.6,5.9-1.7,8.6-3.1
		c8.2-4.2,9.5-7.8,16.8-11.1c4.5-2.1,18.9-6.4,18.9-6.4L87.4,92.5z"/>
	<path class="st6" d="M85.3,96.6c0,0-0.8,8-1.4,8.4c-3.3,1.8-9.9-2.5-12.9-8.4c4.1-4.1,8.1-7.5,8.1-7.5L85.3,96.6z"/>
	<path class="st8" d="M75,92.5c2.1,4.3,7.6,7.2,10.1,7.8c3.5,0.9,8-6.4,7.6-13.6c-0.1-1.9-0.1-5.2-1.1-6.9c-4.3-7.8-14.1-5.2-16.9-2
		C71.1,82,72.6,87.6,75,92.5z"/>
	<path class="st10" d="M91.7,79.8c0,0-1.1,3.5-4.6,4.3c-3.7,0.8-8.7-1.5-8.7-1.5s-1.8,2.8-1.5,4.1c-2.2-0.6-3.3,2.5-3.3,2.5
		s-2.5-3-1.5-8c0.5-2.3,1.5-5.7,4.8-6.9c0.6-0.2,2.2-0.7,3.9-1c2.5-0.6,4.3-2.5,4.3-2.5s0.4,0.9,0.3,3.1c1.8-1.3,3.3-2.8,3.3-2.8
		s0.7,2.3,0.4,3.8c1.2-0.8,2.7-0.8,2.7-0.8S92.2,78.3,91.7,79.8z"/>
	<path class="st7" d="M125.4,224c0,0-3.6-2.8-6.8-2.5c-3.2,0.3-5.5,2.8-6.6,6.2c-1,3.3-1.5,10.6,3.9,15.4
		C119,245.7,125.4,224,125.4,224z"/>
	<path class="st3" d="M126.2,235.5c0,0,3.7-10.2-2-12.1c-5.7-1.9-10,4.2-11,7.4c-2,6.4,2,9,2.4,11.3s2.4,3,6.3,0.9
		C125.8,240.8,125.1,241.2,126.2,235.5z"/>
	<path class="st3" d="M64.5,190.3c0,0-2.8-0.6-3.2-2.3c-0.2-1,0.8-7.3,0-8.7c-0.8-1.3-4-3.4-4.1-5.2s0.2-3.3,0.2-3.3
		s-3.8,1.5-1.4,5.8c1.1,2.1,2.6,4.8,2.6,5.7s-1.2,8.2,1.6,10.4C62.9,194.8,64.5,190.3,64.5,190.3z"/>
	<path class="st5" d="M88.9,116.5v5.4c0,0-6.3,0.1-8.7,1.8c-2.4,1.7-9.3,3.7-9.3,3.7v-5.5c0,0,5.8-3.3,9-4.3
		C83.1,116.7,88.9,116.5,88.9,116.5z"/>
	<path class="st5" d="M56.7,102.4l3.2,6c0,0-5.6,2.1-8.2,3.1c-2.6,1-3.9,1.8-3.9,1.8l-2.4-5.5C45.4,107.9,52.8,102.7,56.7,102.4z"/>
	<path class="st11" d="M133.8,130.5c0,0-3.6,2.1-4.6,3.3c-1,1.3-2.1,2.9-2.1,2.9l-1.3-0.3c0,0,1-2.9,2.5-4.4
		c1.6-1.4,3.8-2.9,3.8-2.9L133.8,130.5z"/>
	<path class="st6" d="M97.5,186.9c1.6,1.4,3.4,6.4,3.4,6.4s-2.6-2.4-3.4-3.1C96.7,189.3,97.5,186.9,97.5,186.9z"/>
	<path class="st5" d="M64.2,152.9c0.1,0-0.5,6.8,0.3,8.9c0.8,2.1,10.2,10.1,10.2,10.1l-1.1,1c0,0-6.2-4.5-9.1-8.3s-2.5-5.4-2.5-7.9
		s0-4.3,0-4.3L64.2,152.9z"/>
	<path class="st5" d="M78.1,165.8l-3.4,3.3c0,0-2.4-2.2-3.8-3.8s-2.6-2.6-2.6-2.6l3.2-2.3L78.1,165.8z"/>
	<path class="st11" d="M42.1,153.5c-0.8,5-5.2,8.8-10.4,8.8c-5.8,0-10.5-4.7-10.5-10.5"/>
	<path class="st7" d="M33.7,157.8c-5.8,0-10.5-4.7-10.5-10.5c0-0.6,0.1-1.2,0.2-1.8c1.9-2.6,5-4.2,8.4-4.2c5.8,0,10.5,4.7,10.5,10.5
		c0,0.6-0.1,1.2-0.2,1.8C40.2,156.1,37.1,157.8,33.7,157.8z"/>
	<path class="st8" d="M28.5,140.2c0.1,1.8,0.6,4.9,0,6.8c-0.6,1.9-1.8,5.5-3.2,4.8c-1.4-0.7,1.2-3.8,1.1-4.8c-0.1-1.1-1.8-1.4-2.8,0
		s-1.2,2.5-1,4.9s-0.8,3.7-1.7,4.1c-0.8,0.4-3.1-7.6-3.1-9s1.3-8.8,1.3-8.8L28.5,140.2z"/>
	<path class="st1" d="M432.8,134.4"/>
	<path class="st1" d="M196.2,167.6L196.2,167.6L196.2,167.6L196.2,167.6z"/>
	<path class="st1" d="M239.4,144c1-0.5,2-1.1,3.1-1.5c0.1,0,0.6,0.9,0.9,1.4c-1.1,0.5-2.2,1-3.2,1.5
		C239.9,145,239.6,144.5,239.4,144z"/>
	<g>
		<path class="st1" d="M515.9,82.4L515.9,82.4c-0.1,0.1-0.1,0.1-0.2,0.1C515.8,82.5,515.9,82.4,515.9,82.4
			C516,82.4,516,82.4,515.9,82.4C516,82.4,516,82.4,515.9,82.4C516,82.4,516,82.4,515.9,82.4z"/>
		<path class="st6" d="M477.6,103.5c0,0,0.3,15.1-0.7,22.9c-0.6,4.5-0.4,9.3-7.4,8.9c-2.1-0.1-11.9-2.1-22.2-5.2
			c-10.6-3.2-20.8-4.5-21-4.9l-3.7-7.9l5.2-0.9c0,0,12.4,2.3,22.3,2.3c7,0,15.1,4.3,15.1,4.3l-5.9-21.5L477.6,103.5z"/>
		<path class="st8" d="M486.3,90.8l-6.8,6.2c0,0-7.3,1-12.1,0c-4.7-1-7.3-6.2-7.3-6.2l5.2-9.3C465.3,81.5,474.3,94.6,486.3,90.8z"/>
		<path class="st6" d="M497.6,64.1c0,0,3.4-2.1,9.9,1.9c5.1,3.1,10.8,3,15.2,8.4c1.8,2.3,10.6,13.2,12.3,16.5s2.4,6,1.7,10.7
			c-0.6,4.7-8.4,6-8.4,6s-3.5-4.9-2.9-6.5c0.6-1.8,5.6-5.2,5.6-5.2s-6.6-6.3-11.7-14.3c-3.1-4.8-10.2-4.5-13.7-5.4
			c-4.8-1.2-7.7-2.6-7.7-2.6L497.6,64.1z"/>
		<path class="st10" d="M486.3,86.2c-3,2.3-6.6,4.2-11.1,4.6c-3.3,0.3-8.5-4.7-11.1-7.5c0.9-2.1,2.5-5.7,3.4-7.8
			c1-3.7,2.3-6.9,7.5-10.6c5.2-3.8,14.8-5.5,14.8-5.5l10.4,4.6c0,0,0,8.9,0,11.9c0,2.4,0.1,7-3.6,8.8
			C493.5,84.7,488.4,84.6,486.3,86.2z"/>
		<path class="st9" d="M481.7,92.9c-11.8,2.1-18.3-7.8-18.3-7.8s0.3-0.7,0.7-1.7c2.6,2.8,7.8,7.8,11.1,7.5c4.6-0.5,8.1-2.3,11.1-4.6
			c2.1-1.6,7.2-1.6,10.2-1.4c0,0-0.1,0-0.1,0.1C491.5,87.3,485.6,92.2,481.7,92.9z"/>
		<path class="st6" d="M500.1,64.1c0,0-2.4,1.6-3.3,5.7c-1.4,6.5-1.4,11.8-4,12.5c-1.8,0.5-3.6-6-5.5-11.5c-1.1-3.3-2.1-7.3-2.1-7.3
			l8.5-5.7L500.1,64.1z"/>
		<path class="st8" d="M505.6,48.5c4.3,4.5,2.6,20.1-3.8,21.2c-4.1,0.7-10-3-12.1-10.2C488,53.4,497.4,40,505.6,48.5z"/>
		<path class="st9" d="M507.6,52.3c0,0-5.6-1-8.2,1.9c-1.7,1.9-3.9,3.6-5.7,3.6c-3.6-2.3-3.9,1.7-1.9,3.8c0.6,1-0.2,2.5-0.2,2.5
			s-4.6-4.3-3.7-10.7s6.4-11.7,15.4-7.6C506.8,47.4,507.6,52.3,507.6,52.3z"/>
		<path class="st9" d="M493.5,46.8c0,0-3.7-5.8-7.8-3.8c-4.1,2.1-6.7,4.3-10.4,2.7c-3.7-1.6-5.2-6.4-5.2-6.4s-1.7,8.7,4.2,13.5
			c7.2,5.9,16.9,1,16.9,1L493.5,46.8z"/>
		<path class="st8" d="M423.7,63.4c6.8-4.6,11.9-6.6,21.3-8.1c2.4-0.4,4.2,0.5,6.3,1.6c3.6,1.9,16.8,6.3,18.3,6.4
			c7.1,0.4,8.5,0.2,10,2.3c1.2,1.6,1.9,4.2,2.4,7.6c1.3,7.9-5.2,10.8-8.2,13c-2.1-0.7-8.4-5.4-8.4-5.4s0.5-1.7,1.6-5.6
			c-6.8-2-16-9-19-10.3c-3.4-1.6-17.1,1.6-21.6,4.9c-1.7,1.2-2.5,3.6-5.6,5.4c-2.6,1.5-7.1-3-7.2-5.4
			C413.4,65.3,421.3,65,423.7,63.4z"/>
		<path class="st10" d="M481.7,95.1l0.1,6.5l-8.5-1.4l-21.6,7.3c0,0-0.5-3.3-0.3-5c0.4-5,8.8-11.7,8.8-11.7S467.7,99.1,481.7,95.1z"
			/>
		<path class="st8" d="M478,99.7c3.9,0.7,24,9.1,25.9,10.2c2.4,1.5,4.2,4.5,5.4,6.6c4.1,7,24.5,28.8,24.5,28.8l-5.9,6.2
			c0,0-15.4-13.3-20.1-18.2c-6.3-6.5-6.5-9.6-10.3-12.7c-3.6-2.9-14.1-2-17.8-2.4c-5.6-0.6-18.4-1.3-21.1-2.5
			c-7-3.1-7.1-8.1-7.1-8.1S458.7,96,478,99.7z"/>
		<path class="st6" d="M466.9,75.3c0,0,2.6,0.7,4.8,1c1.7,0.3,2.1,10,2.1,10s-5.7,0-8.4-5.4C465.8,78.5,466.9,75.3,466.9,75.3z"/>
		<path class="st9" d="M543.8,142.2c-1.8,3.6-4.6,7.1-5.8,9.3s-3.6,4.5-4,4.5s-4.2,0-4.2,0l0,0c-2.2-3.1-4.3-6.5-4.3-6.5
			s3.2,0.5,2.4-2.6c-0.9-3.4,3.4-4.7,3.4-4.7s7.7,0.1,9.5-1.7s6-3.3,7.5-2.5c0.3,0.1,0.5,0.3,0.8,0.5
			C547.6,138.7,545.1,139.6,543.8,142.2z"/>
		<path class="st11" d="M551.1,141.1c0,0-10.1,9-12.4,13c-2.4,4.1-5.7,6.1-7.1,4.3c-0.6-0.8-1.2-1.6-1.9-2.5l0,0c0,0,3.8,0,4.2,0
			s2.8-2.4,4-4.5c1.2-2.2,4-5.7,5.8-9.3c1.3-2.6,3.8-3.4,5.2-3.7C550.1,139.5,551.1,141.1,551.1,141.1z"/>
		<path class="st11" d="M539.8,141.1c0,0-0.9,2.5-2.6,4.1c-1.7,1.6-6.1,1.4-7.4,1c-1.3-0.4-2.6-0.9-4.3-3s1.3-6.2,3.3-3.9
			s1.8,2.8,3.7,2.9C534.2,142.3,539.8,141.1,539.8,141.1z"/>
		<path class="st6" d="M504.1,113.9l3.4,5.1c0,0-2.3,0.2-3.4-1.2C503,116.5,504.1,113.9,504.1,113.9z"/>
	</g>
	<path class="st6" d="M239.2,137.2c0,0-2.2,2.1-2.8,3.5s-0.6,1.4-0.6,1.4S238.1,141.3,239.2,137.2z"/>
	<path class="st3" d="M228.5,147.7c-3.3-1.5-4.1-3.3-4.3-3.8c0.9-1.7,3.2-3.9,3.2-3.9l-3.8-1.9c0.6-1.6,1.4-4.5,3-6.4
		c2.2-2.7,5.3-4.3,7.3-4.6c1.6,1.2,4.3,3.6,5,4.3c3.4,3,3.4,7.2,1.6,10.6c-1,1.8-2.5,4.1-4.1,6.6
		C233.7,148.6,230.3,148.5,228.5,147.7z"/>
	<g>
		<path class="st1" d="M239,112.3c2.5,1.9,6.1,2.6,7.2,6.3C242.3,119.3,240.5,117.7,239,112.3z"/>
		<path class="st1" d="M207.7,99.8c2.5,1.3,5.5,0.2,6.7,3.3C211.5,106.1,211.1,106,207.7,99.8z"/>
		<path class="st1" d="M257.2,131c-0.7,0.2-1.7-1.2-3.3-2.4c1.6-1.1,2.5-2.4,3.5-2.4c0.8,0,2.2,1.6,2.1,2.3
			C259.3,129.5,258.1,130.8,257.2,131z"/>
		<path class="st1" d="M246,117.9c3,0.3,6.1,4.3,6.3,7.1c-0.2,0.2-0.5,0.3-0.7,0.5C249.8,123.1,248.1,120.7,246,117.9z"/>
		<path class="st1" d="M183,118.4c0.8,0.9,1.5,1.6,2.8,3.1c-2,0-3.3,0-5.2,0C181.6,120.1,182.2,119.3,183,118.4z"/>
		<path class="st6" d="M262.6,111.8c0,0,2.4-10.9,3.5-13.3c10.9-11.3,11.1-21.1,11.3-24.4c0.2-3.3-6.1-29.7-6.1-29.7
			s-5.8,1.7-6.6,3.8c-1.6,15.8,1.7,26.4,1.7,26.4s-6,6.8-9.1,12.8c-1.3,2.5-7,11.3-7,11.3L262.6,111.8z"/>
		<path class="st6" d="M256.2,101.7l-0.9,7.9c0,0-7.2,0.7-9.8-2.1c-2.6-2.8-3.3-9-3.3-9l2.9-7.2L256.2,101.7z"/>
		<path class="st8" d="M272.8,153.9c0,0,13.4,10.9,15.8,13c3.4,3,3.2,6.5,1.4,9.9c-1.6,3.1-4.6,9.3-7.1,14.3
			c-2.5,4.9-6.2,15.2-6.2,15.2s-0.2,0.8-4.1,1c-2.1,0.1-4.4-2.7-4.4-2.7s3.4-15.5,3.8-18.7c0.6-5.7,5.5-10.2,5.5-10.2l-14.9-7.6
			C262.5,168.2,269.7,154.7,272.8,153.9z"/>
		<path class="st8" d="M253,178.7c0,0-2-6.1-10.8-4.6c-8.9,1.5-7.7,3.7-7.7,3.7s4.7,10.4,5.5,13.6c0.8,3.2-4.3,7.5-4.5,14
			c-0.1,3,0.1,20,0.1,20h8c0,0,2.4-9.2,3.9-14.8c2-8.1,4.7-11.3,7-17.6C255.5,189.8,253,180.9,253,178.7z"/>
		<path class="st1" d="M278.5,205.4c0.4-0.1,0.7-0.1,1.1,0c1.3,1.3,3.3,3.4,5.3,5.2c2.2,2,3.4,4,5.7,5.6c2,1.4-0.9,3.2-4.1,4.2
			c-1.6,0.5-4,0.2-5.6-0.3c-2.3-0.7-2.7-2-5.7-4.7c0-1.2,0-2.4,0-3.6C275.2,207.3,278.5,205.4,278.5,205.4z"/>
		<path class="st12" d="M269,211.8c-1.9-1.2-3.2-3.5-3.2-3.5s0.2-6.2,2.3-6.4c1.4-0.1,0.5,4.3,2.6,4.1c2.6-0.2,5.8-2.6,7.6-2
			c0,0,0.5,0.5,1.3,1.4c-0.4,0-0.8,0-1.1,0c0,0-3.3,1.9-3.3,6.5c0,1.1,0,2.4,0,3.6c-0.1-0.1-0.1-0.1-0.2-0.2
			C273.4,213.9,270.7,212.9,269,211.8z"/>
		<path class="st5" d="M277.3,209.6c0,0-0.5,2.2,0,5.5c0.3,2.2,1.5,4.1,1.5,4.1l-2.6-2.6C276.2,216.6,275.1,211.4,277.3,209.6z"/>
		<path class="st5" d="M275.1,207.1c0,0-1.7,3-1.5,7c0.3,3.9-1.8-1-1.8-1S272.3,208.1,275.1,207.1z"/>
		<path class="st5" d="M277.3,204c2,1.6,3.3,3.8,4.7,5.5s-0.2,2.7-1.9,1.1c-1.9-1.9-5-5.9-5-5.9S276.8,203.8,277.3,204z"/>
		<path class="st3" d="M291.2,217.2c0,0-1.9-0.3-3.3,1.1c-1.3,1.4-2.8,2-5.5,1.7c-2.7-0.2-4.4-3-7.3-5.1s-5.7-2.9-6.8-3.8
			c-1.5-1.1-2.2-4.8-2.2-4.8s-0.8,2-0.7,2.7c0.2,1.4,1.2,2.5,1.8,3.1c0.8,0.7,1.6,1.5,3.6,2.1c1,0.3,3.3,1.5,4.3,2.3
			s2.9,4.2,6.1,4.8c3.3,0.6,6.9,0.2,8.8-1.6C291.8,218,291.2,217.2,291.2,217.2z"/>
		<path class="st1" d="M246.8,227.1c1.1,3.1,2.6,7.1,3.4,9.5c1.1,3.1,0.9,4.4,0.9,4.4s-3.8,3.9-6.4,3.5c-2.6-0.4-5.1-2.1-6.1-3.6
			c-0.4-0.6-0.8-1.4-1.1-2.4c0.5-3.7,1.4-8.8,2.9-10.5C241.7,226.5,244.5,226.7,246.8,227.1z"/>
		<path class="st12" d="M235.4,223.9c0,0,5.8-4.3,9.8-0.8c0,0,0.6,1.8,1.5,4.1c-2.3-0.4-5.1-0.6-6.4,0.9c-1.5,1.7-2.4,6.8-2.9,10.5
			c-0.9-2.5-1.7-5.7-2-6.8C234.4,228.3,235.4,223.9,235.4,223.9z"/>
		<path class="st5" d="M238.5,240.4c-0.6-3.3,1.6-8.9,1.6-8.9s0.4,5.1,0.1,10.2C239.8,241.1,239.2,240.6,238.5,240.4z"/>
		<path class="st5" d="M236,236.2c-1.7-5.4,2.4-8.8,2.4-8.8s-1.7,5-1.7,10.1C236.6,237.1,236.4,236.6,236,236.2z"/>
		<path class="st5" d="M243.4,222c0,0,1.5,5.6,2,7.8s-1.8,4.8-3.3,0.4c-1.5-4.5-2.7-8.2-2.7-8.2S241.4,220.5,243.4,222z"/>
		<path class="st3" d="M251.1,241.1c0,0-2.3-1.5-4.3-0.7c-2.1,0.8-3,3.7-5.7,1.2c-2.7-2.6-4.3-5.2-4.6-6.4s-1.4-6.2-1.4-6.2
			s-0.4,2,0,4.2c0.4,2.1,2.4,6.7,4.1,8.3s4.4,4.4,10,2.2C252.4,242.3,251.1,241.1,251.1,241.1z"/>
		<path class="st9" d="M245,183.4c4.2-1.5,7.8,1.3,9.3,3.4c0.4,2.7,0.5,5.1-0.1,6.6c-1,2.8-2.5,5.6-3.6,8c-7.6,2.3-11.2-2-12.6-4.2
			c1-1.9,2.3-4.3,1.9-5.6c-0.1-0.4-0.3-1-0.5-1.7C239.7,188.2,240.1,185,245,183.4z"/>
		<path class="st9" d="M263.9,142.7c0,0,6,6.4,8.4,9.2c1.5,1.8,7.3,7.6,7.3,7.6s-3.7,0.8-6.9,4.7c-2.7,3.3-3.2,7.7-3.2,7.7
			s-3.9-0.5-9-2.8c-4.8-2.1-8.2-4.8-8.2-4.8l1,16.9c0,0-2.4-3.1-8.2-2.3c-5.2,0.8-7.8,5.5-7.8,5.5s-6.2-9.7-7.8-18.7
			c-1.1-6.2,0-13.6,0-13.6S255.4,139,263.9,142.7z"/>
		<path class="st9" d="M242.3,98.5c0,0,0.6,3.3,4.1,6.2c2.2,1.8,6.4,3,9.4,1.2c-0.7-3.8-1.4-5.5-1.4-5.5l4.9-0.7
			c0,0,4.1,9.2,4.8,13.3c2.3,12.1-0.2,30.2-0.2,30.2l2.6,2.2c0,0-10.9,7.7-12.8,20c-0.4-0.4-0.9-0.7-1.4-1.1
			c-4-10.6-11.4-12.6-17.8-12.9c-2.2-0.1-5,0.8-5,0.8s2.2-7.7,3-10c1.1-3.1,1.9-7.3,2.1-9.1c0.5-4-7.3-21.1-4.3-25.9
			C234.2,100.9,242.3,98.5,242.3,98.5z"/>
		<path class="st8" d="M246.1,95.6c2.1,4.3,7.6,7.2,10.1,7.8c3.5,0.9,8-6.4,7.6-13.6c-0.1-1.9-0.1-5.2-1.1-6.9
			c-4.3-7.8-14.1-5.2-16.9-2C242.1,85.1,243.7,90.8,246.1,95.6z"/>
		<path class="st6" d="M271.3,41.6c0,0-1.5-1.1-2.1-1.1c-0.5,0-7.4,3.6-7.4,3.6v4.1L271.3,41.6z"/>
		<path class="st8" d="M239.4,101.8c-8.7-4.8-12.1,2-14.1,2.2c-2,0.3-5-2.2-11.8-2.2c-4-4.2-7.4-15.2-7.4-15.2s4.8-4.5-0.1-9.6
			c-0.3-0.5-0.9-0.7-1.8-0.5c-1.1-0.5-1.8,0.1-2.1,0.8c-1.1-0.4-1.7,0.2-1.8,1.1c-0.9-0.5-2,0.3-1.9,1.3c0.2,1.2-0.4,4.4,0.5,8.9
			c0.4,2.1,1.5,8,1.8,9.9c1,5.7,3.4,11.5,8.1,13.5c9.2,3.9,12,5.5,16.1,6c4.2,0.5,9,0.3,9,0.3L239.4,101.8z"/>
		<path class="st8" d="M235,117.9c-1.6,0.1-4.4,0.3-5.2,0.3c-0.2-2.1-0.1-4.2,0.6-6.3c2.9-8.3,9.1-10.2,9.1-10.2
			c3.7,2.7,2.7,8.7,2.8,10.7c0.1,1.4-1.3,5.7-2.2,9.3C238.4,120.1,236.1,117.9,235,117.9z"/>
		<path class="st6" d="M229.8,118.3c0.7,6.2,4.5,11.7,4.5,11.7s-4.4-4.2-4.8-11.7C229.5,118.3,229.6,118.3,229.8,118.3z"/>
		<path class="st6" d="M235,117.9c1.2-0.1,3.5,2.2,5.1,3.9c-0.3,1.2-0.5,2.3-0.6,3.2c-0.4,3.6-5.2,5-5.2,5s-3.8-5.5-4.5-11.7
			C230.6,118.2,233.4,118,235,117.9z"/>
		<path class="st3" d="M288.8,31.3c-0.2-0.1-0.5-0.2-0.7-0.3l25.4-14.7c1.1-0.6,2.4-0.2,3,0.8c0.6,1.1,0.2,2.4-0.8,3L291,34.5
			C291,33.2,290.3,31.7,288.8,31.3z"/>
		
			<ellipse transform="matrix(0.9901 -0.1401 0.1401 0.9901 -1.3867 41.4769)" class="st12" cx="293.9" cy="30.6" rx="15.3" ry="27"/>
		<polygon class="st12" points="301.1,56.1 297.5,58.2 283.3,7.1 287.2,4.8 		"/>
		<ellipse transform="matrix(0.9901 -0.1401 0.1401 0.9901 -1.6836 41.0474)" class="st1" cx="290.7" cy="32.5" rx="15.3" ry="27"/>
		
			<ellipse transform="matrix(0.9901 -0.1401 0.1401 0.9901 -1.8884 40.7514)" class="st12" cx="288.5" cy="33.8" rx="15.3" ry="27"/>
		<polygon class="st12" points="295.7,59.4 292.1,61.5 277.9,10.3 281.8,8 		"/>
		<ellipse transform="matrix(0.9901 -0.1401 0.1401 0.9901 -2.1852 40.3218)" class="st1" cx="285.3" cy="35.7" rx="15.3" ry="27"/>
		<path class="st3" d="M170.5,99.7c-0.2-0.1-0.5-0.2-0.7-0.3l114-65.8l0.1-0.1c0,0,0.7-0.2,1.1,0.3c0.7,0.7,1,2.1,0.7,3.2
			c-0.2,0.7-0.7,1-0.7,1l-113.3,65.4C172.3,102.1,172.1,100.5,170.5,99.7z"/>
		<path class="st8" d="M206.3,78c0,0,1.9,2.9,2.4,4.2c0.7,2-2.6,4.5-2.6,4.5l-3.3,1c0,0,0.5-2.7,1.1-3.5c0.4-0.6,2.5-1.9,2.5-1.9
			S203.6,80.8,206.3,78z"/>
		<path class="st6" d="M261.7,45.2c0,0-0.3,3.5-0.1,4.8c0.4,2.1,4.4,2.7,4.4,2.7l3.4-0.7c0,0-1.8-2.1-2.7-2.6
			c-0.7-0.3-3.1-0.5-3.1-0.5S265.5,46.3,261.7,45.2z"/>
		<path class="st8" d="M205.6,75.7c0,0,0.9,0.4,2,2.4c1.1,1.9,0.8,3,0,3.1s-3.2-3.5-3.2-3.5S203.4,75.7,205.6,75.7z"/>
		<path class="st8" d="M204,76.6c0,0,0.9,0.4,2,2.4c1.1,1.9,0.8,3,0,3.1s-3.2-3.5-3.2-3.5S201.7,76.6,204,76.6z"/>
		<path class="st8" d="M202,77.6c0,0,0.9,0.4,2,2.4c1.1,1.9,0.8,3,0,3.1s-3.2-3.5-3.2-3.5S199.8,77.6,202,77.6z"/>
		<path class="st8" d="M200,78.7c0,0,0.9,0.4,2,2.4c1.1,1.9,0.8,3,0,3.1s-3.2-3.5-3.2-3.5S197.8,78.7,200,78.7z"/>
		<path class="st6" d="M268.8,40c0,0,0.9,0.4,2,2.4c1.1,1.9,0.8,3,0,3.1s-3.2-3.5-3.2-3.5S266.5,40,268.8,40z"/>
		<path class="st6" d="M267.1,40.8c0,0,0.9,0.4,2,2.4c1.1,1.9,0.8,3,0,3.1s-3.2-3.5-3.2-3.5S264.9,40.8,267.1,40.8z"/>
		<path class="st6" d="M265.2,41.8c0,0,0.9,0.4,2,2.4c1.1,1.9,0.8,3,0,3.1s-3.2-3.5-3.2-3.5S263,41.8,265.2,41.8z"/>
		<path class="st6" d="M263.2,42.9c0,0,0.9,0.4,2,2.4c1.1,1.9,0.8,3,0,3.1s-3.2-3.5-3.2-3.5S260.9,42.9,263.2,42.9z"/>
		<path class="st6" d="M209.8,110.7c0,0,2.6-0.6,3.9,0c1.4,0.6,3.3,2.2,3.3,2.2s-1.8,1.2-3.6,0C211.5,111.7,209.8,110.7,209.8,110.7
			z"/>
		<polygon class="st5" points="252.3,114.5 253.2,116.2 245.5,120.5 244.8,118.3 		"/>
		<path class="st12" d="M162.3,83.5c-3.4,12.5,0.4,29.1,8.3,37.1c7.9,7.9,17.1,4.2,20.5-8.3s-0.4-29.1-8.3-37.1S165.6,71,162.3,83.5
			z"/>
		<polygon class="st12" points="183.9,123.4 180.2,125.6 166,74.4 170,72.1 		"/>
		<ellipse transform="matrix(0.9901 -0.1401 0.1401 0.9901 -12.271 25.278)" class="st1" cx="173.4" cy="99.8" rx="15.3" ry="27"/>
		
			<ellipse transform="matrix(0.9901 -0.1401 0.1401 0.9901 -12.6656 24.8552)" class="st12" cx="170.2" cy="102.4" rx="15.3" ry="27"/>
		<polygon class="st12" points="177.4,127.9 173.7,130 159.5,78.9 163.5,76.6 		"/>
		
			<ellipse transform="matrix(0.9901 -0.1401 0.1401 0.9901 -12.9655 24.4119)" class="st1" cx="166.9" cy="104.3" rx="15.3" ry="27"/>
		<path class="st3" d="M141.8,115.8L141.8,115.8l26.5-15.3c0,0,0.6-0.2,1.1,0.3c0.7,0.7,1,2.1,0.7,3.2c-0.1,0.4-0.3,0.7-0.5,0.9
			l-1.3,0.8L143.4,120c0.1-0.2,0.2-0.4,0.3-0.6c0.3-1.1,0-2.6-0.7-3.3C142.5,115.6,142.1,115.6,141.8,115.8z"/>
		<path class="st13" d="M141.1,116.8c0.3-1.1,1.1-1.4,1.8-0.7c0.7,0.7,1,2.2,0.7,3.3c-0.1,0.3-0.2,0.5-0.3,0.6c0,0-0.4,0.3-0.6,0.3
			c-0.3,0.1-0.7,0-1-0.2C141.2,119.4,140.8,117.9,141.1,116.8z"/>
		<path class="st14" d="M262.7,82.9c0,0-1.1,3.5-4.6,4.3c-3.7,0.8-8.7-1.5-8.7-1.5s-1.8,2.8-1.5,4.1c-2.2-0.6-3.3,2.5-3.3,2.5
			s-2.2-3.1-1.2-8.1C244.7,79,255.7,71.5,262.7,82.9z"/>
	</g>
	<path class="st15" d="M216.9,198.3c0,0-10,7.1-13.2,13.1c-3.1,5.7-6.4,5.7-10.8,7.8c-5.5,2.7-10.9,6.5-14.6,9.4
		c-4.2,3.3-5.1,5.5-6.2,7.9c-2.2,4.8-3.7,8.1-3.7,8.1s-2.5,0.3-3.4-4.3s-0.3-7.4-0.3-7.4s0.4-2.2,4-6.4c4.2-5,9.5-9.7,15.1-14.8
		c4.1-3.7,9-5.6,10.5-7.7c7.4-9.9,10.7-15.5,10.7-15.5L216.9,198.3z"/>
	<path class="st15" d="M240.2,131.9c0,0,2.3-1.2,10.7,1.1c3.1,0.9,9,3.6,15,5.2c6,1.6,12.4,4.5,17.7,7.2c2.4,1.2,6.8,2.5,10,2.4
		c3.1-0.1,8.9,6,7.3,8.4c-1.6,2.5-5.6,4.1-8.2,4.6c-2.6,0.6-2.5-6.2-6.2-7.5c-2.5-0.9-13.7-3.7-16.3-4.7c-10.4-4-16.3-3.8-22.6-5.4
		c-2.7-0.7-10.2,4.2-10.2,4.2l-2.6-14.6L240.2,131.9z"/>
	<path class="st15" d="M238.4,135.7c0,0,2.1,7.8,1.7,10.4c-0.4,2.6-5.4,7.4-5.4,7.4s-5.6,2.2-9.8-1.5s-2.8-16.3-2.8-16.3
		s4.5-2.1,8.3-7.1C233,128.7,238.4,135.7,238.4,135.7z"/>
	<path class="st2" d="M201.7,180.4c1.4-3.6,6.7-7.7,10-12.5c1.7-2.5,1.3-11.9,2-14c1.3-3.7,0.6-4.6,0.6-4.6s-4.9-9.5,4.2-13.1
		c2.9-1.1,3.1-0.7,4.4-1.2c2.2,2.4,3.1,6,6.7,9.4c5.8,5.4,10.6,0.8,10-1.5c-3-11.1-3-11.1-3-11.1s5.9,10.7,6.9,15.1
		c0.7,2.9,0.4,7.3-5.1,13.2c-2.4,2.5-6.1,8.6-7.8,13c-1.2,3.2-5.4,12.4-5.4,12.4s-11.9-6.9-15-4.6c-3.1,2.2-1.5,14.8-1.5,14.8
		S197.3,191.5,201.7,180.4z"/>
	<path class="st16" d="M223.9,183.5c4.8,3.3,17.6,16.3,19.7,19.1c2.6,3.3,2.5,5.6-0.8,9.6c-3.3,4.1-10.3,8-14.5,12.8
		c-2.1,2.4-6.9,8.6-6.4,10.4c0.5,1.8,2.3,8,2.3,8s-5.4,5-8.6,0c-3.2-5-5-5.4-5-5.4s5.2-9.7,6.8-13c6.3-12.8,13.2-17.7,13.2-17.7
		s-11-5.9-14.9-7.7c-9.5-4.4-10.7-6.1-10.7-6.1S202.1,168.6,223.9,183.5z"/>
	<path class="st2" d="M222.8,238.5c0,0,2,4.6,4,8.4c1.4,2.6,1.9,4.9,3.5,7.2c1.4,2-1.9,2.7-5.2,2.6c-1.7-0.1-3.8-1.1-5.2-2.1
		c-2-1.4-1.9-2.8-3.9-6.6c-1-1.8-3.2-3.7-4.5-5.2c-1.4-1.7-1.8-4.3-1.8-4.3s1.5-6,3.5-5.5c1.4,0.3-0.2,4.4,1.9,4.9
		C217.5,238.5,221.3,237.4,222.8,238.5z"/>
	<path class="st5" d="M221.9,238.2c1.3,2.2,1.9,4.6,2.7,6.7c0.8,2.1-1.1,2.5-2.1,0.4c-1.2-2.4-2.8-7.2-2.8-7.2
		S221.4,237.8,221.9,238.2z"/>
	<path class="st3" d="M230.6,255.2c0,0-1.7-0.9-3.5,0c-1.7,0.9-3.3,0.9-5.8-0.2s-3.2-4.3-5.3-7.2s-4.4-4.6-5.2-5.8
		c-1.1-1.5-0.9-4.7-0.9-4.7s-0.9,1-1.1,1.8c-0.3,1.3,0.3,2.8,0.7,3.5c0.6,1,1,1.9,2.8,3.2c0.9,0.6,2.6,2.5,3.3,3.6
		c0.7,1,1.3,4.9,4.2,6.6c2.9,1.7,6.5,2.5,8.8,1.4C231,256.2,230.6,255.2,230.6,255.2z"/>
	<path class="st4" d="M221.3,254c0,0,1.5-6.6-3.4-9.7c-6.1-3.9-7.2-8.8-7.2-8.8l-0.7,1.9c0,0,0.3,3.5,3.9,6.2
		c2.1,1.6,3.6,2.6,5.2,4.6C220.3,249.6,221.3,254,221.3,254z"/>
	<path class="st15" d="M243.1,209.1c0,0-0.9,1.3-2.8,2.8c-2,1.5-2.8,2.4-2.8,2.4s-0.3-2.5,0.6-3.8
		C239,209.1,243.1,209.1,243.1,209.1z"/>
	<path class="st16" d="M240.5,118.3c4.3,4.4,2.6,19.8-3.7,20.8c-4.1,0.7-9.8-3-11.9-10.1C223.2,123.1,232.4,109.9,240.5,118.3z"/>
	<path class="st14" d="M242.5,122c0,0-5.6,2.7-12,1.8c-0.9,0.9-1.2,2.3-1.7,3.6c-3.5-2.2-3.9,1.7-1.9,3.8c0.6,1-0.2,2.4-0.2,2.4
		s-5.5-4.4-4.6-10.7c-0.1-1.3-0.1-3,1.1-4c0.2-2.8,2-3.3,3.7-3.3c0.9-2.1,3.1-2,5-2.1c2-0.1,5.7,0.9,8.3,2.1
		C243.7,117.2,242.5,122,242.5,122z"/>
	<path class="st14" d="M234.9,115.6c0,0,0.1-5.2-2.6-6.6c-2.7-1.4-4.5,0-4.5,0s-1.2-3.8-3.1-4c-1.9-0.3-3.7,1.9-3.7,1.9
		s-2.1-0.9-3.4,0c-2.2,1.5,0,4.8,0,4.8s-4.1-0.2-4.5,3.6c-0.2,2.5,0,3.1-1,4c1,1.2,3.7,0.6,3.7,0.6s-1.3,2.3-0.8,3.5
		c0.5,1.3,2.3,2.1,2.3,2.1s-1-2.4,0.6-3.5c1.3,2.7,5.6,3.8,5.7,3.2C223.6,124.6,234.9,115.6,234.9,115.6z"/>
	<path class="st16" d="M158.8,115.6c0,0,1.6-2.1,2.2-0.4c0.5,1.4,2.3,1.4,2.7,1.2c3-1.3,6.5,1.5,9.1,3.6c11.3,8.9,14.6,15.5,17.9,16
		c7.6,1.1,12,4.1,16.9,2.1c4.7-1.9,10.7-3.3,12.9-2.2c1.5,0.8,4.2,5.9,3.8,11c-0.4,5-3.4,8.8-6.7,10.5c0.6-2.6,0.5-7,0.5-7
		s-3.4,0.8-6.4,0.5c-3.1-0.2-6.6-0.7-9.4-1.6c-4.2-1.5-11.4-3.4-15.6-4.5c-0.8-0.2-3.2-0.5-5.4-4.4c-2.9-5.3-10.1-13.1-12.6-16
		c-2.2-2.6-5.8-1.8-7.2-1.8s-8.5,0.2-9.5-3.4c-0.2-0.9,0.8-1.6,2.2-1.2c0.4-1.5,0.8-1.4,1.9-1.5
		C157.7,114.2,158.8,115.6,158.8,115.6z"/>
	<path class="st15" d="M218.2,150.4c0,0,0.1,4.4-0.5,7c-1.5,0.8-3.1,1.2-4.5,1c-0.2-1.8-0.9-5.1-1.4-7.4
		C214.8,151.2,218.2,150.4,218.2,150.4z"/>
	<path class="st15" d="M181.7,136.9c0,0,1.2,0.6,2.2,2.3s0.5,2.7,0.5,2.7S182,139.3,181.7,136.9z"/>
	<path class="st5" d="M240.8,147c0,0,0.5,0.9,1,2s0.6,1.8,0.6,1.8s-2.8,1.6-4.9,2.8c-2.1,1.2-5.3,2.8-5.3,2.8l-1.7-3.9
		c0,0,3.6-1.6,5.6-2.7C238.1,148.6,240.8,147,240.8,147z"/>
	<g>
		<path class="st1" d="M522.6,218.7c1.6,1.3,1.7,2.8,0.4,4.4c-2,2.4-4.8,3-6.5,0.9c-0.8-0.9-0.4-2.8-0.4-3.4
			C518.8,217.4,520.7,217.1,522.6,218.7z"/>
		<path class="st6" d="M551.9,214.3c3,0.5,5.6,3.5,8.8,5.1c2.9,1.5,5,8.4,6.2,9.4c0.7-4.2,2.9-10.4,2.9-10.4s-5.4-5.1-4.3-8.1
			c1.1-2.8,5.6-6.7,9.1-2.7c3.4,3.9,2,7.6,2.1,13.7c0.1,2.8,0.2,10.6-3.7,17c-2.2,3.5-3.1,5.1-7.1,3.5c-3.4-1.4-4.1-3.7-6.6-7.1
			c-2.6-3.7-5.9-6.4-7.4-7.4C548.9,225.5,551.9,214.3,551.9,214.3z"/>
		<path class="st6" d="M507.3,268.4c0,0-3,3.5-6.6,8.2c-3.8,5.1-8.9,3.5-12,6c-7,5.7-17.4,13.7-19.9,16.4c-3.6,3.8-4.3,8.7-4.3,8.7
			s-2.4,0.3-3.4-4.3c-0.9-4.5-0.3-7.3-0.3-7.3s1.4-3.3,4.9-7.5c5.7-6.7,12.3-16.3,21.4-19.5c4.5-7.2,6.7-9.6,6.7-9.6L507.3,268.4z"
			/>
		<path class="st10" d="M529.7,242.8c0,0-7.1,8.4-8.8,12.8c-1.3,3.3-17,16.9-17,16.9s-9.7-0.8-12.2-10.4c2.7-11.6,3-16.2,8.9-17.7
			S529.7,242.8,529.7,242.8z"/>
		<path class="st10" d="M548.4,215.5l0.3-5c0,0-7.9-0.8-15.8,2c-10.5,3.8-16.6,8.5-31.1,25.5c-2.8,3.3-7.9,8.3-5.3,15.7
			c2.6,7.4,9,10.3,14.1,15c5.2,4.7,11.8,6.4,11.8,6.4s-1.8-4.1,4.4-8.2c4.2-2.8,5.2-4.7,5.2-4.7l-12.9-15c0,0,15.2-3.1,20.1-5.7
			c4.2-2.3,15.2-11.9,15.2-11.9L548.4,215.5z"/>
		<path class="st10" d="M536.8,226c0,0,1,8.4-5,10.9s-10.8-0.4-12.6-4.6c-1.8-4.2,0-8.1,0-8.1L536.8,226z"/>
		<path class="st6" d="M553.1,228.4l-14,3.8c0,0,2.2-3.9,1.6-8.3c-0.7-5.1-4.6-6.1-3.8-7.2c1.9-2.6,8.7-1.2,8.7-1.2L553.1,228.4z"/>
		<path class="st8" d="M544.2,222.7c1.4,4.6,6.3,8.2,8.7,9.3c4.2,1.8,12.1-9,9-17.7c-2.9-8.3-11-7.5-14.3-4.9
			C544.9,211.4,542.6,217.5,544.2,222.7z"/>
		<path class="st9" d="M563.7,219c-0.4,2-2.3,3.4-5.8,2.1c-0.6-0.2-2.7-2.5-4.8-2.2c-2.5,0.4-4.1-1.8-4.1-1.8s-1.5,1-3.6,2.3
			c-1.1,0.7-1.2,3.2-1.2,3.2s-4.4-4.5-3.2-9.7c0.7-3.2,3.8-8.3,10.5-9c6.1-0.6,8.3,3.6,11.1,8C564,214.3,563.9,218,563.7,219z"/>
		<path class="st8" d="M466.4,219.9c2.9-3.7,8.8-1.8,15.9-5.6c9.1-4.8,14.7-6,18.8-5.7c3.3,0.3,4.2,2.1,13,3
			c4.1,0.4,8.1,2.6,11.5,4.1l0,0c3.4-2,6.6,0,7.6,1c2.9,2.9,4.3,5.9,3.7,9.3c-0.7,3.4-2.3,7.9-7.2,8.1c-2.9,0.1-6.6-1.7-8.6-3.7
			c-3.6-3.5-6.4-2.3-11.7-5.2c-5.2-2.9-9.6-6.5-9.6-6.5s-6,2.3-8.1,2.7c-3.1,0.6-10.1,0.4-12.8,2.3c-1.8,1.3-3.2,4.9-5,6.3
			c-0.8,0.6-1.4,0.7-1.4,0.7s-0.1-2.1-1.8-3c-0.8-0.4-2-0.2-2.7,1.4c-1.2-0.1-2.7-0.7-3-1.1C463.8,226,465.2,221.4,466.4,219.9z"/>
		<path class="st8" d="M532,262.1c0,0,7.9,8.5,8.8,9.7c2.3,3.4,1.9,7.5-1.3,11.5s-13.1,11.8-15.3,14s-6.2,5.6-5.8,7.4
			s2.2,7.9,2.2,7.9s-5.3,4.9-8.5,0c-3.1-4.9-4.9-5.4-4.9-5.4s4.9-9.7,6.7-12.8c1.8-3.1,3.4-9.1,6.9-12.7c1.5-1.6,5.5-3.6,5.5-3.6
			l-10.3-5.6C516.1,272.4,521,256,532,262.1z"/>
		<path class="st6" d="M525.6,215.7l5.1,2.7c0,0-0.4-2.4-1-3.5C527.6,214.3,525.6,215.7,525.6,215.7z"/>
		<path class="st5" d="M515.3,245.6c-8.4-4.6-10.2-11.5-10.2-11.5l-0.4,0.4c0,0,0.2,4.3,3.3,7.3
			C510.7,244.4,515.3,245.6,515.3,245.6z"/>
		<path class="st5" d="M547.8,234.9c0,0-1.1-0.8-2.3-0.8c-0.8,0-3.1,1.2-3.3,2.2s0.5,1.5,0.5,1.5s-2.1,0.8-3.2,1.6s-1.4,2.4-1.4,2.4
			s1.3-0.3,4.3-2.6c0.5-0.4,2.2-1.7,2.2-1.7s-1-0.7-0.3-1.3c0.7-0.7,2.4-0.3,2.4-0.3L547.8,234.9z"/>
		<path class="st9" d="M519.3,307.7c0,0,2,4.5,4,8.3c1.4,2.6,1.9,4.8,3.5,7.1c1.4,2-1.8,2.7-5.2,2.6c-1.7-0.1-3.8-1.1-5.2-2.1
			c-2-1.4-1.9-2.7-3.9-6.5c-0.9-1.8-3.1-3.6-4.4-5.2c-1.4-1.7-1.8-4.3-1.8-4.3s1.4-5.9,3.4-5.5c1.3,0.3-0.2,4.4,1.9,4.9
			C514.1,307.8,517.8,306.7,519.3,307.7z"/>
		<path class="st5" d="M518.4,307.4c1.3,2.2,1.8,4.6,2.6,6.6s-1.1,2.5-2.1,0.4c-1.2-2.4-2.8-7.1-2.8-7.1S518,307.1,518.4,307.4z"/>
		<path class="st3" d="M527,324.2c0,0-1.7-0.9-3.4,0s-3.2,0.9-5.7-0.2s-3.1-4.2-5.2-7.1c-2.1-2.9-4.4-4.6-5.2-5.7
			c-1-1.5-0.9-4.6-0.9-4.6s-0.9,1-1,1.7c-0.3,1.3,0.3,2.8,0.7,3.4c0.6,0.9,1,1.9,2.7,3.1c0.9,0.6,2.6,2.5,3.2,3.5s1.3,4.8,4.2,6.5
			c2.8,1.7,6.4,2.4,8.7,1.4C527.4,325.2,527,324.2,527,324.2z"/>
		<path class="st11" d="M517.8,323c0,0,1.5-6.5-3.3-9.6c-6-3.9-7.1-8.7-7.1-8.7l-0.7,1.8c0,0,0.3,3.5,3.8,6.1
			c2.1,1.6,3.6,2.6,5.1,4.5C516.8,318.7,517.8,323,517.8,323z"/>
		<path class="st9" d="M465.8,288.7c0,0,0.1,0.8-0.4,2c-0.6,1.5-1.7,3.5-0.2,4.7c1.1,0.9,4.8,3.5,4.8,3.5s0,2.5,0,4.5
			c0,2.4,0,5.7,0.2,7.4c0.2,1.7,0.7,4.3-1.3,5.2c-3.2,1.5-5.5-0.6-6.9-3.1c-1.3-2.6-1.2-7.6-1.3-9.1c-0.2-1.5-0.3-4.4-1.6-6.7
			c-1.8-3.1-1-4.8,0.1-6.3C460.8,288.7,463.1,289.3,465.8,288.7z"/>
		<path class="st3" d="M470.1,314.5c0,0-1.3-1-3.1-0.8s-3.2,0.8-4.3-1.9c-1-2.7-0.6-10.1-1.8-12.8s-2.7-6.3-2.7-6.3
			s-1.2,1.4-0.1,3.8s2.4,4.7,2.1,7.2s-0.9,10.2,3.7,12C468.5,317.3,469.7,315.7,470.1,314.5z"/>
		<path class="st11" d="M464.1,310.2c0,0,4.2-6.7,0.7-11.2c-4.3-5.7-3.3-9.7-3.3-9.7l-1.6,0.7c0,0-1.1,3.2,1.3,6.9
			c1.4,2.2,2,3.5,2.9,5.9C464.7,304.7,464.1,310.2,464.1,310.2z"/>
		<path class="st5" d="M470,298.8c0.3,2.5-0.2,4.9-0.3,7.1c-0.1,2.2-2,1.8-2.1-0.5c-0.1-2.6,0.4-8,0.4-8S469.8,298.3,470,298.8z"/>
		<path class="st5" d="M504.8,241.9c0,0-4.9,5.6-0.5,10.4s15.1,13.6,15.1,13.6l-1.2,1.8c0,0-12.2-9.5-15.8-14.9
			c-3.2-4.7-1.6-8.2-0.2-10.7c1.2-2.3,3.5-4.2,3.5-4.2l1.1,2.1L504.8,241.9z"/>
		<path class="st6" d="M538.1,280.9c0,0-0.9,1.3-2.8,2.8s-2.7,2.3-2.7,2.3s-0.3-2.4,0.6-3.8C534.1,280.9,538.1,280.9,538.1,280.9z"
			/>
	</g>
	<g>
		<path class="st1" d="M158.2,302c0.3-0.1,0.7-0.1,1.1,0c1.2,1.3,3.2,3.3,5.1,5c2.1,1.9,3.2,3.8,5.4,5.4c1.9,1.4-0.8,3.1-3.9,4
			c-1.5,0.5-3.8,0.2-5.4-0.2c-2.2-0.6-2.6-1.9-5.5-4.5c0-1.2,0-2.3,0-3.4C155,303.7,158.2,302,158.2,302z"/>
		<path class="st12" d="M149.1,308.1c-1.9-1.1-3-3.3-3-3.3s0.2-5.9,2.2-6.1c1.3-0.1,0.4,4.1,2.5,3.9c2.5-0.2,5.5-2.4,7.2-1.9
			c0,0,0.5,0.5,1.3,1.3c-0.4,0-0.7,0-1.1,0c0,0-3.2,1.8-3.2,6.2c0,1.1,0,2.3,0,3.4c-0.1-0.1-0.1-0.1-0.2-0.2
			C153.4,310.1,150.8,309.1,149.1,308.1z"/>
		<path class="st5" d="M157.1,305.9c0,0-0.5,2.1,0,5.3c0.3,2.1,1.5,4,1.5,4l-2.5-2.5C156,312.6,154.9,307.6,157.1,305.9z"/>
		<path class="st5" d="M154.9,303.5c0,0-1.7,2.9-1.4,6.7c0.3,3.8-1.7-0.9-1.7-0.9S152.3,304.5,154.9,303.5z"/>
		<path class="st5" d="M157.1,300.5c1.9,1.6,3.2,3.6,4.5,5.2c1.4,1.6-0.2,2.6-1.8,1c-1.8-1.8-4.8-5.6-4.8-5.6
			S156.5,300.4,157.1,300.5z"/>
		<g>
			<path class="st3" d="M155,267.7c0,0-0.5,4.2-6.1,7.8c-3.7-3.7-3.3-12.2-3.3-12.2L155,267.7z"/>
			<path class="st8" d="M152.7,252.6c0,0,12.8,10.4,15.1,12.5c3.2,2.9,3,6.2,1.3,9.5c-1.6,3-4.4,8.9-6.8,13.7
				c-2.4,4.7-6,14.6-6,14.6s-0.2,0.8-3.9,1c-2.1,0.1-4.2-2.6-4.2-2.6s3.3-14.8,3.6-17.9c0.6-5.5,5.2-9.7,5.2-9.7l-14.2-7.3
				C142.8,266.3,149.8,253.3,152.7,252.6z"/>
			<path class="st3" d="M170.3,313.2c0,0-1.9-0.3-3.1,1.1c-1.3,1.4-2.7,1.9-5.3,1.6c-2.6-0.2-4.2-2.9-7-4.9s-5.5-2.8-6.6-3.6
				c-1.4-1-2.1-4.7-2.1-4.7s-0.7,1.9-0.6,2.6c0.1,1.3,1.1,2.4,1.7,2.9c0.8,0.7,1.6,1.4,3.5,2c1,0.3,3.2,1.5,4.1,2.2
				c0.9,0.7,2.8,4,5.9,4.6c3.1,0.6,6.6,0.2,8.4-1.5C171,314,170.3,313.2,170.3,313.2z"/>
			<path class="st3" d="M140.2,275.5c0,0-1.4,7.1-7.8,8.8c-6.4,1.7-12,0-12,0S124.6,266,140.2,275.5z"/>
			<path class="st8" d="M137.6,273.5c0,0-1.9-5.8-10.4-4.4s-7.4,3.6-7.4,3.6s4.5,10,5.3,13s-4.2,7.2-4.4,13.5
				c-0.1,2.9,0.1,19.2,0.1,19.2h7.7c0,0,2.3-8.8,3.7-14.2c2-7.8,4.5-10.9,6.7-16.9C140,284.2,137.6,275.6,137.6,273.5z"/>
			<path class="st6" d="M136.5,287.6c-1.1,0.6-3.4,1.6-3.7,3.3c-0.4,1.7-0.4,1.7-0.4,1.7s2.7-1.9,3.7-2.8
				C137,288.8,136.5,287.6,136.5,287.6z"/>
			<path class="st1" d="M131.7,320c1.1,2.9,2.5,6.8,3.3,9.1c1,3,0.9,4.3,0.9,4.3s-3.6,3.7-6.1,3.3c-2.5-0.4-4.9-2-5.8-3.5
				c-0.4-0.6-0.7-1.4-1.1-2.3c0.5-3.5,1.4-8.5,2.8-10.1C126.8,319.4,129.5,319.5,131.7,320z"/>
			<path class="st12" d="M120.8,316.9c0,0,5.6-4.1,9.4-0.8c0,0,0.6,1.7,1.4,3.9c-2.2-0.4-4.9-0.6-6.2,0.9c-1.4,1.6-2.3,6.6-2.8,10.1
				c-0.9-2.4-1.6-5.5-1.9-6.5C119.8,321.1,120.8,316.9,120.8,316.9z"/>
			<path class="st5" d="M123.7,332.7c-0.6-3.2,1.6-8.5,1.6-8.5s0.4,4.8,0.1,9.8C125,333.4,124.4,332.9,123.7,332.7z"/>
			<path class="st5" d="M121.4,328.7c-1.6-5.2,2.3-8.4,2.3-8.4s-1.6,4.8-1.6,9.7C121.9,329.5,121.7,329.1,121.4,328.7z"/>
			<path class="st5" d="M128.5,315c0,0,1.4,5.3,1.9,7.5s-1.7,4.6-3.1,0.4c-1.4-4.3-2.6-7.9-2.6-7.9S126.6,313.6,128.5,315z"/>
			<path class="st3" d="M135.8,333.4c0,0-2.2-1.4-4.2-0.7c-2,0.8-2.9,3.6-5.5,1.1c-2.5-2.5-4.1-5-4.4-6.1s-1.4-6-1.4-6s-0.3,1.9,0,4
				s2.3,6.4,3.9,8s4.2,4.2,9.6,2.1C137.1,334.6,135.8,333.4,135.8,333.4z"/>
			<path class="st9" d="M142,243.7l19,14.6c0,0-6.9,2.8-9.2,7.1c-2.3,4.3-3,10.1-3,10.1s-12.1-7.8-18.2-12.9
				c-4.5,1.1-18.2,4-21.1,0.8c-3.7-4.2-1.9-14.4-0.4-19.8L142,243.7z"/>
			<path class="st9" d="M140.2,275.5c0,0-5.6-1.1-9.7,0c-4.1,1.1-9,5.2-10.1,8.8c-3.1-2-6.6-8.7-7.7-11.1
				c-4.5-9.8-5.2-16.4-5.2-16.6s26.9,2.8,27.7,3c0.6,0.1,3.1,9.1,4.3,13.5C139.9,274.5,140.2,275.5,140.2,275.5z"/>
			<path class="st6" d="M145.3,201c0,0,5.3,8.4,5,10.9c-0.4,2.5-8.5,6.2-8.5,6.2s-5.3,2.1-9.4-1.4c-4-3.6-2.7-15.6-2.7-15.6l9.3-6.3
				L145.3,201z"/>
			<path class="st5" d="M147.6,206.6c0,0,0.6,6.5-2.3,8c-2.9,1.4-8.9-5.5-11.7-8c-2.8-2.4-0.4-7.7-0.4-7.7l5.9-2.2
				c0,0-0.1-2.7-1.4-3.1c-1.4-0.5-14,5-17.8,9c-3.7,4-3.7,4-3.7,4s-2.2,23.7-4.9,28.9c-2.7,5.2-3.7,11.6-3.7,11.6
				s18.6,13.8,28.7,8.6c10.1-5.2,11.5-9.5,11.5-9.5l-3.9-4.8c0,0,5.1-3,1.8-4.4s-7.1-4.3-3.7-5.5c3.4-1.2,12-15.2,12-19.3
				s0-14.1,0-14.1l-6.5,6.4L147.6,206.6z"/>
			<path class="st8" d="M122.7,203.2c2.7,1,6.5,5.7,7.5,9.3c0.8,2.9-3.3,11.5-5.7,12.9c-2.3,1.4-10.9,0-10.9,0s-9.1,9.2-14.4,10.1
				c-7.8,1.3-15.6,11.4-15.6,11.4l-8-1.7c0,0,8-16.2,17.6-20.6c6.8-3.2,10.8-14,18.6-14C113.6,208.1,116.1,200.9,122.7,203.2z"/>
			<path class="st8" d="M85.2,245.3c0,0-0.3,7.1-2.5,11.3c-2.3,4.2-3.3,3-3.3,3V254c0,0-4.5,4.5-6,7s-6.8,1.5-6-2.8
				c0.8-4.3,9.2-14.6,9.2-14.6L85.2,245.3z"/>
			<path class="st3" d="M82,235c0,0,2.5-0.8,5,1.8c3,3.2,1.4,5.1,1.4,5.1l-3.3,3.4c0,0,0.1-1.5-3.1-3.1c-2-1-4.5-0.4-4.5-0.4L82,235
				z"/>
			<path class="st17" d="M142,243.7c0,0-1.3,4-7.9,6.2c-6.6,2.3-17.9-3-17.9-3s8.6,1.4,14.5,0C136.6,245.6,142,243.7,142,243.7z"/>
			<path class="st17" d="M142,237.3c0,0-10.4,4.5-17.5,4c-7-0.6-11-4.9-11-4.9s6.9,0.9,11.9,1.3C130.5,238.1,142,237.3,142,237.3z"
				/>
			<path class="st3" d="M155,238c0,0-4.3-1.3-6.7-2.1s-6.8-8.8-6.8-8.8l-4.5,14.5c0,0,8.2-4.6,10.7-3.8c4,1.3,6.7,2.1,6.7,2.1
				L155,238z"/>
			<path class="st3" d="M120.4,243.3c9.7,3,19.4-0.6,21.7-8c2.3-7.5-3.6-16-13.2-19c-9.7-3-19.4,0.6-21.7,8
				C104.9,231.8,110.8,240.3,120.4,243.3z M110,225.2c2-6.3,10.1-9.3,18.2-6.7c8.1,2.5,13.1,9.7,11.1,15.9c-2,6.3-10.1,9.3-18.2,6.7
				C113,238.6,108,231.4,110,225.2z"/>
			<path class="st3" d="M134.3,242.7l5.7-18.1c0.1,0.2,0.2,0.4,0.3,0.6l-5.4,17.3C134.7,242.6,134.5,242.6,134.3,242.7z"/>
			<path class="st3" d="M131.7,243.2l-0.2-0.1l6.5-20.7c0.1,0.1,0.3,0.2,0.4,0.3l-6.4,20.5C131.8,243.2,131.7,243.2,131.7,243.2z"/>
			<path class="st3" d="M128.2,243.3l7.1-22.6c0.1,0.1,0.3,0.2,0.4,0.3l-7,22.3C128.6,243.2,128.4,243.2,128.2,243.3z"/>
			<path class="st3" d="M125.4,243.4l7.5-24.1c0.1,0.1,0.3,0.2,0.5,0.2l-7.5,23.9C125.7,243.5,125.6,243.4,125.4,243.4z"/>
			
				<rect x="113.4" y="230.2" transform="matrix(0.2991 -0.9542 0.9542 0.2991 -131.1621 282.3413)" class="st3" width="26.4" height="0.5"/>
			
				<rect x="110.9" y="229.3" transform="matrix(0.2991 -0.9542 0.9542 0.2991 -132.0811 279.3298)" class="st3" width="26.4" height="0.5"/>
			
				<rect x="108" y="228.4" transform="matrix(0.2991 -0.9542 0.9542 0.2991 -133.2395 275.9628)" class="st3" width="26.4" height="0.5"/>
			<path class="st3" d="M114.9,239.8c-0.1,0-0.1-0.1-0.2-0.1l7.3-23.4c0.2,0,0.4,0,0.5,0l-7.4,23.8C115.1,240,115,239.9,114.9,239.8
				z"/>
			<path class="st3" d="M112.2,237.5l6.6-21.1c0.2-0.1,0.4-0.1,0.6-0.2l-6.8,21.6C112.5,237.8,112.4,237.6,112.2,237.5z"/>
			<path class="st3" d="M110.2,235.2l5.5-17.7c0.2-0.1,0.3-0.1,0.5-0.2h0.1l-5.8,18.4C110.4,235.6,110.3,235.4,110.2,235.2z"/>
			
				<rect x="125.3" y="214.5" transform="matrix(0.2991 -0.9542 0.9542 0.2991 -132.7978 282.0151)" class="st3" width="0.5" height="33.8"/>
			
				<rect x="126.1" y="212.1" transform="matrix(0.2991 -0.9542 0.9542 0.2991 -129.9303 281.0538)" class="st3" width="0.5" height="33.8"/>
			<path class="st3" d="M143,231.2c0.1,0.1,0.2,0.1,0.3,0.2l-0.1,0.4L111,221.7l0.2-0.5L143,231.2z"/>
			<path class="st3" d="M113,219l28.2,8.8c0.1,0.2,0.1,0.4,0.2,0.6l-29-9.1C112.6,219.2,112.8,219.1,113,219z"/>
			<path class="st3" d="M116,217.4l24.2,7.6c0.1,0.2,0.2,0.4,0.3,0.6l-25.2-7.9C115.6,217.6,115.8,217.5,116,217.4z"/>
			<path class="st3" d="M120.7,216.1l14.8,4.6c0.6,0.3,1.1,0.7,1.7,1l-17.6-5.5C120,216.2,120.4,216.1,120.7,216.1z"/>
			<path class="st3" d="M138,240.6c-0.2,0.1-0.3,0.2-0.5,0.4l-28.5-9c0-0.2-0.1-0.4-0.1-0.5l0,0L138,240.6z"/>
			<path class="st3" d="M140.7,238.7c-0.2,0.1-0.4,0.2-0.6,0.3l-31.5-9.9l0.2-0.5L140.7,238.7z"/>
			<path class="st3" d="M128.3,243.2c-0.4,0.1-0.7,0.1-1.1,0.2l-12.8-4c-0.3-0.3-0.7-0.6-1-0.8L128.3,243.2z"/>
			<path class="st3" d="M134.8,242.5c-0.2,0.1-0.5,0.2-0.8,0.3l-23.7-7.4c-0.1-0.2-0.3-0.4-0.4-0.7L134.8,242.5z"/>
			<path class="st6" d="M154.5,194c1.8,0.9,4.5,3.1,7.1,6.8c6.2,2.9,11.6,8.2,14.4,11.5c2.3,2.8-0.1,10.9-1.4,20.6
				c-0.9,6.3-3.7,7.6-5.1,9.1c-1.4,1.5-7.1,3.2-8.5,3.3c-4.3,0.4-6.8-4.8-4.4-7.7c2.3-2.9,8.6-2.5,10.3-4.8c2.5-3.3-0.6-13,1.6-16.6
				c-3.9-2.6-10-5.1-14.5-6.6c-0.3-2.3-0.4-5.6-0.1-8.7C154.6,198.9,154.4,196.3,154.5,194z"/>
			<path class="st8" d="M138.2,200.6c2,4.1,7.3,6.9,9.7,7.5c3.4,0.9,7.7-6.2,7.3-13c-0.1-1.8-0.1-5-1-6.7c-4.1-7.4-13.5-5-16.2-1.9
				C134.4,190.5,135.9,195.9,138.2,200.6z"/>
			<path class="st10" d="M154,187.4c0,0-1,3.4-4.4,4.1c-3.5,0.8-8.3-1.5-8.3-1.5s-1.7,2.6-1.4,3.9c-2.1-0.6-3.1,2.4-3.1,2.4
				s-2.4-2.9-1.4-7.7c0.5-2.2,1.4-5.4,4.6-6.7c0.6-0.2,2.1-0.6,3.8-1c2.4-0.5,4.1-2.4,4.1-2.4s0.4,0.9,0.3,3
				c1.7-1.2,3.2-2.7,3.2-2.7s0.7,2.2,0.4,3.6c1.2-0.8,2.6-0.8,2.6-0.8S154.6,185.9,154,187.4z"/>
			<path class="st5" d="M155.6,191.7c0,0-4.9,2.9-9.7,3c-5.6,0.1-9.2-1.4-10.6-3.9c-0.5-1,0.6-4,0.6-4s6.7,5.4,11.9,4
				c5.1-1.4,6.3-3.4,6.3-3.4S155.6,188.6,155.6,191.7z"/>
		</g>
	</g>
	<g>
		<path class="st1" d="M422.5,173.7c0.7-0.5,2.2-0.9,2.7-0.5c0.8,0.7,1.6,2.1,1.6,3.1c-0.1,0.8-1.3,1.9-2.2,2.2
			c-1.1,0.4-2.5,0.1-3.7,0.1c-0.7,1.1-1.4,2.2-2.2,3.3c-0.5-0.1-0.9-0.3-1.4-0.4c0.3-1.2,0.2-2.7,0.9-3.6
			C419.4,176.2,420.9,174.9,422.5,173.7z"/>
		<path class="st1" d="M416.1,189.7C416.1,189.7,416.2,189.8,416.1,189.7c0.1,0.1,0,0.1,0,0.1C416.1,189.9,416.1,189.7,416.1,189.7
			v0.1C416.1,189.8,416.1,189.8,416.1,189.7L416.1,189.7L416.1,189.7z"/>
		<path class="st1" d="M415,150.7c-2.1,0-3.8-1.8-3.8-4.1c0-2.2,1.6-4.1,3.5-4c1.8,0,3.6,2,3.7,4C418.4,148.7,416.8,150.7,415,150.7
			z"/>
		<path class="st1" d="M391,127c0,0.7-0.7,1.4-1.5,2.7c-0.7-1.3-1.3-2-1.2-2.5c0.2-0.7,0.9-1.3,1.4-1.9
			C390.2,125.9,391,126.4,391,127z"/>
		<path class="st15" d="M417.5,116.7c0,0,6.9-2.9,11.1-3.1s6.7,2.1,6.7,2.1s9-2.2,24.1,1c11,2.4,16.5,3.6,16.5,3.6l-2.2,7.5
			c0,0-8.7-0.5-14.8-1.8c-6.1-1.3-17.1,3.4-24.2,1.9c-4.9-1.1-16.9,7.9-16.9,7.9L417.5,116.7z"/>
		<path class="st15" d="M418.3,122.5l-2.2,7.6c0,0-8.4-6.3-10.5-9.5c-2.1-3.1-0.6-3.6-0.6-3.6l4-6.7L418.3,122.5z"/>
		<path class="st16" d="M427.4,171.9c0,0,13.4,10.9,15.8,13c3.4,3,3.2,6.5,1.4,9.9c-1.6,3.1-4.6,9.3-7.1,14.3
			c-2.5,4.9-6.2,15.2-6.2,15.2s-0.2,0.8-4.1,1c-2.1,0.1-4.4-2.7-4.4-2.7s3.4-15.5,3.8-18.7c0.6-5.7,5.5-10.2,5.5-10.2l-14.9-7.6
			C417.1,186.2,424.4,172.7,427.4,171.9z"/>
		<path class="st16" d="M407.6,196.6c0,0-2-6.1-10.8-4.6c-8.9,1.5-7.7,3.7-7.7,3.7s4.7,10.4,5.5,13.6c0.8,3.2-4.3,7.5-4.5,14
			c-0.1,3,0.1,20,0.1,20h8c0,0,2.4-9.2,3.8-14.8c2-8.1,4.7-11.3,7-17.6C410.2,207.7,407.6,198.8,407.6,196.6z"/>
		<path class="st9" d="M386.9,165.8h30.9l2.8-0.3c0,0,10.2,7.4,14.3,12.5c-4.3,1.1-11,11.7-11,11.7l-17.2-6.3c0,0,1.8,11.1,1.2,15.3
			c-1.7-1.8-4.7-2.6-8.7-1.8c-5.3,1.1-7.7,4.3-7.7,4.3s-7.5-10.8-7.5-19.5C384,174.4,386.9,165.8,386.9,165.8z"/>
		<path class="st9" d="M405.5,116.3c0,0,1.1,2.9,3.3,5.4c1.9,2.1,4.8,3.8,6.3,4.1c1.1,0.2,3.2-4.3,3.2-4.3l3.3,2c0,0,1.9,6.8,2.2,11
			c0.4,4.2-3.7,21-4.7,25.8c-0.5,2.6,2.8,1.5,1.5,5.2c0.6,0.9-5.3,9.3-13.9,10.6c-9.3,1.4-21.7-2.7-21.7-2.7s0.2-3.4,1.2-7.9
			c1.1-5.1,2.9-11.6,2.9-17.4c0.1-4,3.2-18,6.2-22.8C399.1,119,405.5,116.3,405.5,116.3z"/>
		<path class="st16" d="M409.3,114.8c1.4,4.6,6.4,8.3,8.7,9.4c3.3,1.5,9-5.1,9.7-12.2c0.2-1.9,0.7-5.2,0.1-7
			c-3-8.4-13.1-7.4-16.4-4.7C407.1,103.8,407.7,109.6,409.3,114.8z"/>
		<path class="st2" d="M433.1,223.4c0.4-0.1,0.7-0.1,1.1,0c1.3,1.3,3.3,3.4,5.3,5.2c2.2,2,3.4,4,5.7,5.6c2,1.4-0.9,3.2-4.1,4.2
			c-1.6,0.5-4,0.2-5.6-0.3c-2.3-0.7-2.7-2-5.7-4.7c0-1.2,0-2.4,0-3.6C429.8,225.3,433.1,223.4,433.1,223.4z"/>
		<path class="st4" d="M423.7,229.8c-1.9-1.2-3.2-3.5-3.2-3.5s0.2-6.2,2.3-6.4c1.4-0.1,0.5,4.3,2.6,4.1c2.6-0.2,5.8-2.6,7.6-2
			c0,0,0.5,0.5,1.3,1.4c-0.4,0-0.8,0-1.1,0c0,0-3.3,1.9-3.3,6.5c0,1.1,0,2.4,0,3.6c-0.1-0.1-0.1-0.1-0.2-0.2
			C428.1,231.9,425.4,230.8,423.7,229.8z"/>
		<path class="st5" d="M432,227.5c0,0-0.5,2.2,0,5.5c0.3,2.2,1.5,4.1,1.5,4.1l-2.6-2.6C430.9,234.6,429.7,229.3,432,227.5z"/>
		<path class="st5" d="M429.8,225c0,0-1.7,3-1.5,7c0.3,3.9-1.8-1-1.8-1S427,226,429.8,225z"/>
		<path class="st5" d="M432,221.9c2,1.6,3.3,3.8,4.7,5.5c1.4,1.7-0.2,2.7-1.9,1.1c-1.9-1.9-5-5.9-5-5.9S431.4,221.8,432,221.9z"/>
		<path class="st3" d="M445.8,235.1c0,0-1.9-0.3-3.3,1.1c-1.3,1.4-2.8,2-5.5,1.7c-2.7-0.2-4.4-3-7.3-5.1s-5.7-2.9-6.8-3.8
			c-1.5-1.1-2.2-4.8-2.2-4.8s-0.8,2-0.7,2.7c0.2,1.4,1.2,2.5,1.8,3.1c0.8,0.7,1.6,1.5,3.6,2.1c1,0.3,3.3,1.5,4.3,2.3
			s2.9,4.2,6.1,4.8c3.3,0.6,6.9,0.2,8.8-1.6C446.5,236,445.8,235.1,445.8,235.1z"/>
		<path class="st15" d="M406.5,211.3c-1.2,0.7-3.5,1.7-3.9,3.4c-0.4,1.8-0.4,1.8-0.4,1.8s2.8-2,3.8-2.9
			C407.1,212.6,406.5,211.3,406.5,211.3z"/>
		<path class="st4" d="M390.1,241.8c0,0,5.8-4.3,9.8-0.8c0,0,0.6,1.8,1.5,4.1c-2.3-0.4-5.1-0.6-6.4,0.9c-1.5,1.7-2.4,6.8-2.9,10.5
			c-0.9-2.5-1.7-5.7-2-6.8C389.1,246.3,390.1,241.8,390.1,241.8z"/>
		<path class="st5" d="M393.2,258.3c-0.6-3.3,1.6-8.9,1.6-8.9s0.4,5.1,0.1,10.2C394.5,259,393.9,258.6,393.2,258.3z"/>
		<path class="st5" d="M390.7,254.2c-1.7-5.4,2.4-8.8,2.4-8.8s-1.7,5-1.7,10.1C391.3,255,391.1,254.6,390.7,254.2z"/>
		<path class="st5" d="M398.1,239.9c0,0,1.5,5.6,2,7.8c0.5,2.3-1.8,4.8-3.3,0.4c-1.5-4.5-2.7-8.2-2.7-8.2S396.1,238.5,398.1,239.9z"
			/>
		<path class="st15" d="M443.7,191c0,0-2.2,2.1-2.8,3.5c-0.6,1.4-0.6,1.4-0.6,1.4S442.7,195.1,443.7,191z"/>
		<path class="st15" d="M413.4,108.8c0,0-1.5-1-2.3,0.7c-0.6,1.1-0.5,3.9-0.5,3.9s-1.9-2.9-0.7-5.1
			C410.7,107.1,412.6,106.7,413.4,108.8z"/>
		<path class="st14" d="M427,103.3c0,0-0.4,4.1-6.4,2.5s-11.3-3.2-11.3-3.2s0.3-5.7,7.2-6.1c7-0.4,11.6,3.6,11.6,3.6L427,103.3z"/>
		<path class="st5" d="M403.9,196.8c0,0-2.4-2.4-8-2.4c-3,0-6.8,2.9-6.8,2.9l-0.6-1.1c0,0,4.4-3.3,8.1-3.1c6.9,0.4,9.1,4.2,9.1,4.2
			L403.9,196.8z"/>
		<path class="st5" d="M431.1,174c0,0-1,2.1-1.1,3.4c-0.1,1.3,0.6,3.6,0.6,3.6l-0.5,0.5c0,0-1.4-2.2-1.2-4.5c0.2-2,1.4-3.7,1.4-3.7
			L431.1,174z"/>
		<path class="st16" d="M400.2,119.7c0,0,4,6,4.2,11.3c0.3,5.3-3.4,12.6-6.9,14.6s-8.5,4.1-8.5,4.1s-0.8-15.3,1.3-20.2
			C392.4,124.5,400.2,119.7,400.2,119.7z"/>
		<path class="st16" d="M400.2,119.7c0,0-7.5-0.3-12.4,3.4c-3.7,2.8-5.2,7-5.2,7s-7.6,2.5-13.8,6.5c-3.7,2.4-2.7,3.7-3.5,6.4
			c-1.5,5.4-2.7,13-3.3,15.6c-0.2,1-1,9.3,3.7,13.3c4.7,4.1,6.3,1.4,5.7-3.9c-0.1-1-0.3-4.9-0.3-4.9s1.9,2.7,3.2,3.9
			c1,1,3.1,0.4,1.3-3.2c-2.1-4.1-4.9-5.8-4.6-8.1c0.4-2.5,2.2-7.4,2.9-9.5c3.8-0.7,12-2.5,14.5-3.7c8.3-4.1,11.3-5.2,11.3-5.2
			S406.6,133.2,400.2,119.7z"/>
		<path class="st3" d="M465.2,118.8c-4.1,5.1-4.8,11.3-1.5,14s9.3,0.7,13.4-4.3c4.1-5.1,4.8-11.3,1.5-14
			C475.3,111.8,469.3,113.7,465.2,118.8z"/>
		<path class="st2" d="M466.2,119.5c-3,3.7-3.5,8.2-1.1,10.2c2.4,1.9,6.8,0.5,9.8-3.1c3-3.7,3.5-8.2,1.1-10.2
			S469.2,115.8,466.2,119.5z"/>
		<path class="st15" d="M478.5,121.3c1.3,0.4,2.9,1.4,3.1,2c0.3,0.6,0.2,1.7-1.1,1.5c1.4,2.1-1.3,2.5-1.3,2.5s0.8,0.8,0,1.9
			c-0.4,0.6-1.6,0.4-1.6,0.4s0.3,1.2-0.7,1.8c-0.7,0.4-3.4-2-3.6-2.7c-0.2-0.8-0.3-2.9,1-2c-0.7-1.6-0.7-2.7,1.1-2.3
			c-0.8-1.7,0-2.1,1.3-1.7C475.9,121.5,477.2,120.9,478.5,121.3z"/>
		<path class="st5" d="M393.9,147.5c0,0-0.1,7.9-1.8,11.9c-1.7,3.9-3.2,8.8-3.6,10.6s-0.8,4.2-0.8,4.2l-2.2-0.6
			c0,0,1.4-8.9,3.4-12.2c2.9-4.7,2.1-12.5,2.1-12.5L393.9,147.5z"/>
		<path class="st15" d="M388.5,142.6c0,0,5-2.4,6.5-3.1c1.5-0.7,5.2,3.6,5.2,3.6s-1.7,2.7-5.3,4.5c-3.5,1.8-5.8,2.2-5.8,2.2
			L388.5,142.6z"/>
		<path class="st6" d="M380.5,223.9c1.8,1.1,4.1,3.3,5.4,5.2c1.4,1.8,5.2,7.2,5.2,7.2s-3.3-3.7-5.9-6.6
			C382.6,226.7,380.5,223.9,380.5,223.9z"/>
		<g>
			<path class="st9" d="M350.2,241h30.9l2.8-0.3l14.3,12.5c0,0-6.8,2.6-10.1,8.5c-3.1,5.7-5.7,7.5-5.7,7.5l-9.6-6.3l0.6,11.2
				c0,0-3.7-4.1-11.2-1.6c-7.2,2.4-10.8,7.9-10.8,7.9s-4.5-17.7-4.5-22.2C347.1,250.9,350.2,241,350.2,241z"/>
			<g>
				<path class="st2" d="M401.4,245.1c1.1,3.1,2.6,7.1,3.4,9.5c1.1,3.1,0.9,4.4,0.9,4.4s-3.8,3.9-6.4,3.5s-5.1-2.1-6.1-3.6
					c-0.4-0.6-0.8-1.4-1.1-2.4c0.5-3.7,1.4-8.8,2.9-10.5C396.3,244.5,399.2,244.6,401.4,245.1z"/>
				<path class="st3" d="M405.8,259c0,0-2.3-1.5-4.3-0.7c-2.1,0.8-3,3.7-5.7,1.2c-2.7-2.6-4.3-5.2-4.6-6.4c-0.3-1.2-1.4-6.2-1.4-6.2
					s-0.4,2,0,4.2c0.4,2.1,2.4,6.7,4.1,8.3c1.7,1.6,4.4,4.4,10,2.2C407.1,260.3,405.8,259,405.8,259z"/>
				<path class="st3" d="M373.4,272.9c0,0,2.5,5.4-6.3,8.4c-7.4,2.5-14.5,3.8-15.6-0.9C350.3,275.6,362.1,261.6,373.4,272.9z"/>
				<path class="st6" d="M381.6,197.6l-2.2,7.6c0,0-8.4-6.3-10.5-9.5c-2.1-3.1-0.6-3.6-0.6-3.6l4-6.7L381.6,197.6z"/>
				<path class="st8" d="M390.8,247.1c0,0,13.4,10.9,15.8,13c3.4,3,3.2,6.5,1.4,9.9c-1.6,3.1-4.6,9.3-7.1,14.3
					c-2.5,4.9-6.2,15.2-6.2,15.2s-0.2,0.8-4.1,1c-2.1,0.1-4.4-2.7-4.4-2.7s3.4-15.5,3.8-18.7c0.6-5.7,5.5-10.2,5.5-10.2l-14.9-7.6
					C380.5,261.4,387.7,247.9,390.8,247.1z"/>
				<path class="st8" d="M371,271.8c0,0-2-6.1-10.8-4.6c-8.9,1.5-7.7,3.7-7.7,3.7s4.7,10.4,5.5,13.6s-4.3,7.5-4.5,14
					c-0.1,3,0.1,20,0.1,20h8c0,0,2.4-9.2,3.8-14.8c2-8.1,4.7-11.3,7-17.6C373.5,282.9,371,274,371,271.8z"/>
				<path class="st6" d="M382.5,191.5c0,0,5.7-2.9,9.8,2.8c2.4,3.3-0.2,7.9,0.8,10.1c3.5,7.7,5.8,12.2,7,17.8c1.1,5,3.3,11,5.3,12.9
					c2,2,8.8,6.1,9.2,10c0.9,7.9-1.7,9.3-3.4,7.9s-21.9-29.2-21.9-29.2s-4.1-12.5-5.2-19.6C383.2,197.2,382.5,191.5,382.5,191.5z"/>
				<path class="st5" d="M368.8,191.5c0,0,1.1,2.9,3.3,5.4c1.9,2.1,4.8,3.8,6.3,4.1c1.1,0.2,3.2-4.3,3.2-4.3l3.3,2
					c0,0,1.9,6.8,2.2,11c0.4,4.2-2.6,17-3.5,21.8c-0.5,2.6,3.6,4.7,0.9,7.8c1.2,2,2.6,4.6,2.6,4.6s-10.7,13.9-19.4,10.4
					c-5.8-2.4-10.3-6.3-14.2-8.2c-2-0.9-5,0.8-5,0.8s-1.2-2.5,0.8-6.9c1.7-3.7,0.2-3.5,1.6-5.5c1.4-1.9,2.5-4.9,2.8-6.8
					c0.5-4,1.8-22.4,4.8-27.3C362.5,194.2,368.8,191.5,368.8,191.5z"/>
				<path class="st17" d="M381.6,231.1c0,0-1.1,2.9-4.9,5.2s-10.8,3.2-10.8,3.2s10.9-6.4,12.2-8.6c1.3-2.3,4-8.2,4-8.2
					s2,1.3,1.9,1.2C383.9,223.9,383,228.4,381.6,231.1z"/>
				<path class="st3" d="M377,206.4c1.3-0.2,2.9-0.1,2.9-0.1l4.1,3.4l-1.5,2.4l-2.6-2.5c0,0-1.3,11-1.2,13.6c-1.1,0-2.9-0.4-2.9-0.4
					L377,206.4z"/>
				<path class="st8" d="M360.9,200.8c2.8-2.4,7.1-1.5,9.3,1c2.1,2.5,6.2,9.2,6.2,9.2s7.9,2.3,10.9,7.8c3.1,5.5,6.6,9.9,9.8,13.8
					c2.5,3,3.3,7.4,7.9,8.3c3.1,0.6,2.9,1.5,3.9,2.3c2.4,1.9,3.7,3.9,5.2,8.8c0.5,1.6,1.4,2.5-0.7,2.9c1.3,1.3-0.2,2.6-1.9,0.9
					c0.3,2.1,0.3,2.1-2.2,0.4c-6-4.1-6-8.6-7.9-10c-2-1.6-13.5-8.7-17.5-15.4c-4.5-7.5-11.4-7.8-15.2-12.5c-3.6,1.9-7.5,1-9.5-0.6
					C357.3,216.1,355.4,205.5,360.9,200.8z"/>
				<path class="st8" d="M372.6,190c1.4,4.6,6.4,8.3,8.7,9.4c3.3,1.5,9-5.1,9.7-12.2c0.2-1.9,0.7-5.2,0.1-7
					c-3-8.4-13.1-7.4-16.4-4.7C370.4,179,371.1,184.8,372.6,190z"/>
				<path class="st9" d="M396.5,298.6c0.4-0.1,0.7-0.1,1.1,0c1.3,1.3,3.3,3.4,5.3,5.2c2.2,2,3.4,4,5.7,5.6c2,1.4-0.9,3.2-4.1,4.2
					c-1.6,0.5-4,0.2-5.6-0.3c-2.3-0.7-2.7-2-5.7-4.7c0-1.2,0-2.4,0-3.6C393.2,300.4,396.5,298.6,396.5,298.6z"/>
				<path class="st12" d="M387,305c-1.9-1.2-3.2-3.5-3.2-3.5s0.2-6.2,2.3-6.4c1.4-0.1,0.5,4.3,2.6,4.1c2.6-0.2,5.8-2.6,7.6-2
					c0,0,0.5,0.5,1.3,1.4c-0.4,0-0.8,0-1.1,0c0,0-3.3,1.9-3.3,6.5c0,1.1,0,2.4,0,3.6c-0.1-0.1-0.1-0.1-0.2-0.2
					C391.5,307.1,388.8,306,387,305z"/>
				<path class="st5" d="M395.4,302.7c0,0-0.5,2.2,0,5.5c0.3,2.2,1.5,4.1,1.5,4.1l-2.6-2.6C394.3,309.7,393.1,304.5,395.4,302.7z"/>
				<path class="st5" d="M393.1,300.2c0,0-1.7,3-1.5,7c0.3,3.9-1.8-1-1.8-1S390.3,301.2,393.1,300.2z"/>
				<path class="st5" d="M395.3,297.1c2,1.6,3.3,3.8,4.7,5.5c1.4,1.7-0.2,2.7-1.9,1.1c-1.9-1.9-5-5.9-5-5.9S394.8,296.9,395.3,297.1
					z"/>
				<path class="st3" d="M409.2,310.3c0,0-1.9-0.3-3.3,1.1c-1.3,1.4-2.8,2-5.5,1.7c-2.7-0.2-4.4-3-7.3-5.1s-5.7-2.9-6.8-3.8
					c-1.5-1.1-2.2-4.8-2.2-4.8s-0.8,2-0.7,2.7c0.2,1.4,1.2,2.5,1.8,3.1c0.8,0.7,1.6,1.5,3.6,2.1c1,0.3,3.3,1.5,4.3,2.3
					s2.9,4.2,6.1,4.8c3.3,0.6,6.9,0.2,8.8-1.6C409.9,311.2,409.2,310.3,409.2,310.3z"/>
				<path class="st6" d="M412.9,244.4c0,0-0.8,0.1-1.1,1.7c-0.3,1.7-0.8,4.1-2.2,2.9c-1.4-1.2-0.1-3.8,0-4.7s-0.5-2.3-0.5-2.3
					L412.9,244.4z"/>
				<path class="st6" d="M368.8,218.3c0,0-2.7-2.8-3.6-3.4c-0.9-0.7-5.9,2.9-5.9,2.9S363.3,221.6,368.8,218.3z"/>
				<path class="st3" d="M366.3,219.3c0,0-1,4.9-1.5,7.6c-0.5,2.6,0.1,6-2.1,8.3c-2.2,2.2-3.3,2.9-3.4,4.2s1.4,1.2,1,2.9
					s-1.2,1.8-1.8,2.5c-0.7,0.7-1.2,2.1-1.2,2.1s-1.4-1.9-3.4-2.1c-2-0.3-3.1,0.4-3.1,0.4s0-2,0.5-2.6c0.5-0.7,2.4-2.2,1.6-3.3
					c-0.8-1-1.7-2.4-0.5-2.9s5.3-3.8,4.9-5.1c-0.3-1.3-1.1-5.2-1-6.7c0.1-1.4,3-6.8,3-6.8S361.7,220,366.3,219.3z"/>
				<path class="st17" d="M387.3,243.8c0,0-0.3-0.7-0.7-1.3c-2.6,2.1-4.6,8.2-11.8,9.5c-5.3,0.9-13.5-4.6-17.1-6
					c-3.7-1.4-5-2.6-6.8-1.6c-1.8,0.9-2.5,1.2-2.5,1.2l0.4,1.2c0,0,4.2-1.8,7.2,0.4c4.6,3.4,6.6,6.5,12.9,7.8
					c6.4,1.3,9.6-0.8,12.9-3.9C384.9,247.9,387.3,243.8,387.3,243.8z"/>
				<path class="st17" d="M384,240.6c0,0-2.9,7-7.4,7.3c-4.5,0.4-8.7-1.1-8.7-1.1S377.6,245.9,384,240.6z"/>
				<path class="st6" d="M369.9,286.5c-1.2,0.7-3.5,1.7-3.9,3.4c-0.4,1.8-0.4,1.8-0.4,1.8s2.8-2,3.8-2.9
					C370.4,287.8,369.9,286.5,369.9,286.5z"/>
				<path class="st9" d="M364.8,320.2c1.1,3.1,2.6,7.1,3.4,9.5c1.1,3.1,0.9,4.4,0.9,4.4s-3.8,3.9-6.4,3.5s-5.1-2.1-6.1-3.6
					c-0.4-0.6-0.8-1.4-1.1-2.4c0.5-3.7,1.4-8.8,2.9-10.5C359.7,319.6,362.5,319.8,364.8,320.2z"/>
				<path class="st12" d="M353.5,317c0,0,5.8-4.3,9.8-0.8c0,0,0.6,1.8,1.5,4.1c-2.3-0.4-5.1-0.6-6.4,0.9c-1.5,1.7-2.4,6.8-2.9,10.5
					c-0.9-2.5-1.7-5.7-2-6.8C352.4,321.4,353.5,317,353.5,317z"/>
				<path class="st5" d="M356.6,333.5c-0.6-3.3,1.6-8.9,1.6-8.9s0.4,5.1,0.1,10.2C357.9,334.2,357.3,333.8,356.6,333.5z"/>
				<path class="st5" d="M354.1,329.3c-1.7-5.4,2.4-8.8,2.4-8.8s-1.7,5-1.7,10.1C354.6,330.2,354.4,329.7,354.1,329.3z"/>
				<path class="st5" d="M361.5,315.1c0,0,1.5,5.6,2,7.8c0.5,2.3-1.8,4.8-3.3,0.4c-1.5-4.5-2.7-8.2-2.7-8.2S359.5,313.6,361.5,315.1
					z"/>
				<path class="st3" d="M369.1,334.2c0,0-2.3-1.5-4.3-0.7c-2.1,0.8-3,3.7-5.7,1.2c-2.7-2.6-4.3-5.2-4.6-6.4
					c-0.3-1.2-1.4-6.2-1.4-6.2s-0.4,2,0,4.2c0.4,2.1,2.4,6.7,4.1,8.3c1.7,1.6,4.4,4.4,10,2.2C370.4,335.5,369.1,334.2,369.1,334.2z"
					/>
				<path class="st6" d="M407.1,266.1c0,0-2.2,2.1-2.8,3.5c-0.6,1.4-0.6,1.4-0.6,1.4S406.1,270.3,407.1,266.1z"/>
				<path class="st5" d="M361.9,270.7l-0.2-1.2c0,0-3.7-0.6-5.9,1.1c-2.2,1.7-2.8,2.7-2.8,2.7l0.7,1.6c0,0,1.5-1.9,3.1-2.7
					C358.4,271.3,361.9,270.7,361.9,270.7z"/>
				<path class="st6" d="M376.8,184c0,0-1.5-1-2.3,0.7c-0.6,1.1-0.5,3.9-0.5,3.9s-1.9-2.9-0.7-5.1C374,182.3,376,181.8,376.8,184z"
					/>
			</g>
		</g>
		<path class="st9" d="M409.9,216.6c-0.1,0.7-0.2,1.4-0.2,2.1c0,6.8,5.5,12.2,12.2,12.2c4,0,7.6-1.9,9.8-4.9
			c-1,5.8-6,10.2-12.1,10.2c-6.8,0-12.2-5.5-12.2-12.2C407.5,221.2,408.4,218.7,409.9,216.6z"/>
		<path class="st10" d="M422,230.9c-6.8,0-12.2-5.5-12.2-12.2c0-0.7,0.1-1.4,0.2-2.1c2.2-3,5.8-4.9,9.8-4.9
			c6.8,0,12.2,5.5,12.2,12.2c0,0.7-0.1,1.4-0.2,2.1C429.5,229,426,230.9,422,230.9z"/>
		<path class="st2" d="M426.2,230.2c0,0-1.7-8.7-6.6-12.4s-8.5-2.6-9.7-1.2c-1.3,1.5-2,4.1-2,4.1s1.8,11.2,10.3,11.2
			C424.3,231.9,426.2,230.2,426.2,230.2z"/>
	</g>
	<g>
		<path class="st1" d="M335.2,88c0.3-3.3,4-7.3,7.9-8.2C342,83.7,338,87.8,335.2,88z"/>
		<path class="st1" d="M328.6,124c-2.2-1.6-4.7-2.5-4.9-3.8c-0.5-3.3,3.4-2.5,4.9-4.2c0.3,0.1,0.7,0.2,1,0.4
			C329.2,118.6,329,120.9,328.6,124z"/>
		<path class="st7" d="M329.9,130c0,0-3.5,2.3-2.9,4.3c0.9,3.2,0.6,4.6,0.6,4.6s-2.6,0-5.3,1.1c-2.6,1.1-6.5,4.3-8.1,6
			s-4.2,1.6-4.2,1.6s4.4-15.5,6.3-20.2s6-2.8,6-2.8L329.9,130z"/>
		<path class="st11" d="M326.7,138.3c0,0,2.2,1,4.6,2c2.5,1,3.1,1.3,3.1,1.3s-0.9,1.8-2.4,1.8s-4.7-3.1-5.7-3.2
			c-1-0.1-4.6,0.1-5.8,0.8c-1.2,0.8-4.4,3.3-4.4,3.3s0.3-1.9,1.4-3.2C318.5,139.9,321.5,136.8,326.7,138.3z"/>
		<path class="st11" d="M322.5,124.6c0,0-0.7,1.5-2.2,2.4s-1.6-0.2-2.7,2s-3.7,9.2-3.8,10.7c0,1.5-0.9,6.5-1.6,7.6s-3.1,0.7-3.1,0.7
			s4.5-12.7,5.3-14.9s1.8-7.2,4.2-8.7C320.8,123,322.5,124.6,322.5,124.6z"/>
		<path class="st12" d="M338,186.2c0.2,6.8-4.2,9.2-10.1,8.7c-4.4-0.4-31.3-2.6-31.3-2.6s-3-6.8,0.2-8.8c1.6-0.8,15.9,0,22-1.5
			c6.1-1.4,14.1-1.6,14.1-1.6S337.8,180.2,338,186.2z"/>
		<path class="st3" d="M300.3,194.5c0,0-3.6,3.5-6.6,6.6c-2,2.2-3.9,3.4-5.6,5.7c-1.4,2-3.2-0.8-4.2-4c-0.5-1.6-0.2-4,0.2-5.6
			c0.6-2.4,2-2.7,4.8-5.9c1.4-1.5,2.4-4.2,3.4-6c1.1-1.9,3.5-3.2,3.5-3.2s6.2-0.7,6.4,1.4c0.2,1.4-4.2,1.3-4,3.5
			C298.5,189.5,300.9,192.7,300.3,194.5z"/>
		<path class="st1" d="M287.3,207.5c0,0,0.3-2-1.2-3.2c-1.4-1.3-2-2.8-1.8-5.5s3-4.4,5-7.4c2-2.9,2.9-5.7,3.7-6.9
			c1.1-1.5,4.1-2.5,4.1-2.5s-1.3-0.5-2-0.4c-1.3,0.2-2.5,1.2-3,1.8c-0.7,0.9-1.4,1.6-2,3.7c-0.3,1-1.5,3.3-2.3,4.3s-4.2,2.9-4.8,6.2
			c-0.6,3.3-0.1,6.9,1.6,8.8C286.4,208.2,287.3,207.5,287.3,207.5z"/>
		<path class="st6" d="M374.5,41.7c3,6.2-6.9,14.5-9.5,20.9c-1.9,4.9-10.1,17.3-12.1,21c-3.4,6.2-5.4,8.5-8.7,11.8
			c-5.6,5.7-10.6,7.9-10.6,7.9s0.1-14.1,1.9-14.5s25.9-26.6,27.2-33.3C364.1,48.9,370.4,33.1,374.5,41.7z"/>
		<path class="st6" d="M330.9,82.9l2.1,5.8c0,0-2.8,3.5-6.7,2c-3.9-1.5-5.7-5.2-5.7-5.2l1.7-7.2L330.9,82.9z"/>
		<path class="st8" d="M334.4,64.2c4.7,4,4.7,19.4-1.5,21.1c-4,1.1-10.1-1.9-12.9-8.8C317.7,70.8,325.5,56.7,334.4,64.2z"/>
		<path class="st10" d="M336.8,67.6c0,0-5.3,3.3-11.7,3c-0.8,1-0.9,2.4-1.3,3.8c-3.7-1.8-3.7,2.1-1.5,3.9c0.7,0.9,0.1,2.4,0.1,2.4
			s-4.9-3.7-4.7-10.1c0.2-6.4,5-12.1,14.2-9C335.5,62.9,336.8,67.6,336.8,67.6z"/>
		<path class="st10" d="M320,66.2c0,0-4.9,0.2-6.3,4.8c-1.4,4.6-0.3,7.1-0.3,7.1s6-1.9,6.3-5.8C320.1,68.3,320,66.2,320,66.2z"/>
		<path class="st10" d="M314.4,75.5c0,0,1.3,4.5-0.3,7.4c-1.6,2.9-3.5,2.5-3.5,2.5s-0.3-3.3,0.2-5.2
			C311.3,78.3,314.4,75.5,314.4,75.5z"/>
		<path class="st10" d="M311.5,84.2c0,0,0.3,4.7-1.8,7.2c-2.1,2.5-3.9,1.7-3.9,1.7s0.4-3.3,1.2-5.1
			C307.8,86.3,311.5,84.2,311.5,84.2z"/>
		<path class="st10" d="M307.6,91.8c0,0-0.5,4-2,6.2s-3.9,3.6-3.9,3.6s-2.1-0.5-2.4-1.5s0.1-1.8,0.1-1.8S303.7,92.6,307.6,91.8z"/>
		<path class="st6" d="M333.4,148.9c0,0,1,9.6,2.4,17.4c1.5,8.6,3.5,20.3,3.5,20.3s-0.5,10.2-12,3.1c-4.3-2.6-4.4-13.7-5.9-18.5
			c-1.3-4-5.7-21.1-5.7-21.1L333.4,148.9z"/>
		<path class="st8" d="M320.3,146.9c0.2,1.3-3.6,39.1-3.8,44.2c-0.2,5.1-3.3,9.6-3.3,9.6s-10.6,2.6-11.4-0.1
			c-0.7-2.7-0.5-3.2-0.5-3.2s0.8-13.7,0.8-26.3c0-8.1-2.6-14.8-2-17.9C301.8,145.1,320.3,146.9,320.3,146.9z"/>
		<path class="st9" d="M332.8,134.8l1.2,18.6c0,0-1.4,0.9-5.7,2.7c-4,1.7-8.7,1.8-8.7,1.8s-1,4-7.7,4.6c-6.6,0.6-10.9-1.4-10.9-1.4
			s-4.1-11.4,4.9-25.7C310.8,127.6,332.8,134.8,332.8,134.8z"/>
		<path class="st9" d="M335.4,87.7c0,0,3.3,10.2,3.6,14.6s-2.3,9.9-2.3,9.9s-5.2,13.7-4.9,15.4c0.3,1.6,1,7.3,1,7.3
			s-8.1,6.8-18.6,4.6c-5-1-8.2-4-8.2-4s5-6.3,5.3-9.5c0.3-3.1-1-23.1,0.8-29.9c1.9-6.8,8.4-10.5,8.4-10.5s4.9,6.1,8,4.1
			C331.5,87.6,335.4,87.7,335.4,87.7z"/>
		<path class="st3" d="M335.3,96.2c0,0.1,2.5,2.9,2.5,2.9l-0.5,1.3l-2.2-2.3c0,0,0.5,5,0.4,7.6s-0.5,4.1-0.5,4.1l-1.5,0.1
			c0,0,0.6-5.8,0.5-8.5c-0.2-2.7-0.5-5.2-0.5-5.2H335.3z"/>
		<path class="st8" d="M360.7,46.5c5.8-6.7,7.8,2.5,4.4,8.8c-0.7,1.4-3.2,5.6-5.4,10.8c-1.1,2.5-7.4,13.3-15.4,22.3
			c-5.6,6.3-11.4,10.7-18.5,14.3c-3.4,7.1-7.8,6.1-10.7,3.7c-3.7-2.9-1.1-11,1.5-13.9c4.6-5.1,12.5-4.5,15.1-7.4
			c10.7-12,21.4-20.4,21.9-22.3C354.4,58.8,354.1,54,360.7,46.5z"/>
		<path class="st3" d="M336.4,194.6c-2.2,2-8.5,0.3-8.5,0.3s-4.9-3.2-5.5-7.6c-0.6-4.3,0.8-6.6,0.8-6.6s2.1,5.2,5.5,6.9
			c5.7,2.8,10.4-2.3,10.4-2.3S340.8,190.6,336.4,194.6z"/>
		<path class="st3" d="M359.6,66.4l-4.6,7.8c0,0-2.2,1.5-4.5-0.6c-2.2-2.1-2.1-4.8-2.1-4.8l4.7-5.1
			C353.1,63.6,355.8,67.8,359.6,66.4z"/>
		<path class="st3" d="M332.4,131.9c0,0-7.1,4.7-13.5,4.3c-6.4-0.3-11.4-2.9-11.4-2.9l0.9-1.4c0,0,4.8,2,10.7,2.7
			c5.9,0.7,13.1-4,13.1-4L332.4,131.9z"/>
		<path class="st3" d="M313.6,133.9c0.5-1.6,2.5-7.8,2.7-15c0.3-8.4,0.6-11.2,0.6-11.2l1.1,0.3c0,0-0.4,6.6-0.6,10.8
			c-0.2,4.1-1.3,10.6-3,15.3C314.1,134,313.9,133.9,313.6,133.9z"/>
		<path class="st11" d="M375.8,17.1c-0.2,0.7-0.3,1.3-0.4,2c-0.8,6.7,4.1,12.8,10.8,13.5c4,0.4,7.7-1.1,10.3-3.8
			c-1.6,5.6-7.1,9.5-13.1,8.8c-6.7-0.8-11.6-6.8-10.8-13.5C372.8,21.4,374,19,375.8,17.1z"/>
		<path class="st7" d="M386.2,32.7c-6.7-0.8-11.6-6.8-10.8-13.5c0.1-0.7,0.2-1.4,0.4-2c2.6-2.7,6.3-4.3,10.3-3.8
			c6.7,0.8,11.6,6.8,10.8,13.5c-0.1,0.7-0.2,1.4-0.4,2C393.9,31.6,390.1,33.1,386.2,32.7z"/>
		<path class="st2" d="M390.4,32.4c0,0-0.7-8.8-5.1-13s-8.1-3.5-9.5-2.3c-1.4,1.3-2.4,3.8-2.4,3.8s0.6,11.3,9,12.3
			C388.3,33.9,390.4,32.4,390.4,32.4z"/>
		<path class="st12" d="M331.4,120.5c0,0-3.4,7.5-6.9,9.1c-3.5,1.7-7.5,1.8-7.5,1.8s4.4-3.4,6.1-4.3
			C327.4,124.8,331.4,120.5,331.4,120.5z"/>
		<path class="st12" d="M334.1,112.8c0,0-3.1,4.2-8.5,8.9c-2.9,2.5-6.2,3.4-6.2,3.4s3-4.9,4.6-6.1
			C328.8,115.2,334.1,112.8,334.1,112.8z"/>
		<path class="st5" d="M305.2,168.9c0,0,3.8,2.3,8.2,3.2c4.3,0.9,7.1,4.2,7.1,4.2s0.5,0.6,0.8,0.9c-2.2-1.5-4.9-2.7-7.9-3.1
			c-4.1-0.6-6.8-3.4-6.8-3.4L305.2,168.9z"/>
		<path class="st5" d="M308.5,173.3c0,0,2.9,1.8,7.3,2.8c4.9,1,7.1,3.2,7.1,3.2l1.2,1.4c0,0-2.8-2.5-7.9-2.9
			c-4.2-0.3-6.3-2.4-6.3-2.4L308.5,173.3z"/>
		<path class="st5" d="M300.4,193.5c-1.6,2-3.7,3.3-5.4,4.8c-1.7,1.4-2.7-0.2-1.1-1.9c1.9-1.9,5.8-5.1,5.8-5.1
			S300.5,193,300.4,193.5z"/>
		<path class="st1" d="M285.3,198.3c0,0,6.7-0.8,8-6.5c1.6-7.1,5.9-9.8,5.9-9.8h-2c0,0-3.2,1.5-4.6,5.7c-0.8,2.5-1.2,4.3-2.5,6.4
			C289,195.9,285.3,198.3,285.3,198.3z"/>
	</g>
	<g>
		<path class="st3" d="M350.2,154.3c0,0,2.9,4.7,1.5,8.6c-1.6,4.4-5.1,4.9-5.1,4.9s-4.3-2.2-7.2-5c-2.4-2.3-3.6-5.3-3.6-5
			L350.2,154.3z"/>
		<path class="st14" d="M327.2,150.8c0,3.3,2.4,6.1,5.3,6.1s5.3-2.7,5.3-6.1c0-3.3-2.4-6.1-5.3-6.1
			C329.5,144.7,327.2,147.5,327.2,150.8z"/>
		<g>
			<path class="st3" d="M330.1,191.3c0,0,1.6,4.7,3.3,8.7c1.1,2.7,1.4,5,2.9,7.5c1.2,2.1-2.1,2.6-5.5,2.1c-1.7-0.2-3.7-1.5-5-2.6
				c-1.9-1.6-1.7-2.9-3.3-6.9c-0.8-1.9-2.8-3.9-4-5.6c-1.3-1.8-1.4-4.5-1.4-4.5s2-5.9,4-5.2c1.3,0.4-0.6,4.4,1.4,5.1
				C324.8,190.9,328.7,190.1,330.1,191.3z"/>
			<path class="st5" d="M329.2,190.9c1.1,2.3,1.5,4.8,2,6.9c0.6,2.1-1.3,2.4-2.2,0.2c-1-2.5-2.1-7.4-2.1-7.4
				S328.8,190.5,329.2,190.9z"/>
			<path class="st1" d="M336.4,208.6c0,0-1.7-1.1-3.4-0.3c-1.8,0.7-3.3,0.6-5.7-0.7c-2.4-1.4-2.8-4.6-4.6-7.6s-4-5-4.7-6.2
				c-0.9-1.6-0.5-4.8-0.5-4.8s-1,0.9-1.2,1.7c-0.4,1.3,0,2.8,0.4,3.5c0.5,1,0.9,2,2.5,3.4c0.8,0.7,2.4,2.8,2.9,3.9
				c0.6,1.1,0.9,5,3.6,6.9s6.2,3,8.6,2.2C336.7,209.7,336.4,208.6,336.4,208.6z"/>
			<path class="st1" d="M327.2,206.6c0,0,2.1-6.4-2.5-10c-5.7-4.5-6.4-9.4-6.4-9.4l-0.9,1.8c0,0,0,3.5,3.3,6.5
				c1.9,1.8,3.4,2.9,4.8,5C326.6,202.1,327.2,206.6,327.2,206.6z"/>
			<path class="st11" d="M290.6,124c-0.1,0.6-0.2,1.2-0.2,1.8c0,5.8,4.7,10.5,10.5,10.5c3.5,0,6.5-1.7,8.4-4.2
				c-0.8,5-5.2,8.8-10.4,8.8c-5.8,0-10.5-4.7-10.5-10.5C288.5,128,289.3,125.8,290.6,124z"/>
			<path class="st7" d="M301,136.3c-5.8,0-10.5-4.7-10.5-10.5c0-0.6,0.1-1.2,0.2-1.8c1.9-2.6,5-4.2,8.4-4.2
				c5.8,0,10.5,4.7,10.5,10.5c0,0.6-0.1,1.2-0.2,1.8C307.5,134.7,304.4,136.3,301,136.3z"/>
			<path class="st10" d="M347.9,183.5c0,0,2.8-7.8,4.6-16.7c2.3-11.8,5.4-17.3,6.1-22.1c0.2-1.4-2.1-2.8-5.1-5.3
				c-6.6-5.4-17.7-13-21-15.2c-4.8-3.2-9.9,5.2-9.9,5.2s7.5,0.4,11.7,3.7c5.2,4,13.5,13.8,13.5,13.8l-9.1,28L347.9,183.5z"/>
			<path class="st8" d="M327.6,322.7c-0.5-0.6-5.5-7.2-5.5-11c0-2.8-0.6-4.6-1.4-5.9c0.3-0.7,0.6-1.7,0.5-3.2
				c-0.1-2.1-2.9-11.8-3.9-18.9c-1.3-8.7-0.8-15.1,0.7-18.7c1.5-5.1,0-18.1,0-25.2c0-1.5,0-24.6,0-24.6s13.8-18.3,13.5-14.7
				c-0.4,3.6,9.3,18.2,9.3,18.2s-4.3,6.8-3.8,12.9c0.6,6.1-4.5,23.6-7,30.1c-3,7.7,0,22.3-2.4,35.7c-1.1,6,1.9,13.2,2.8,15.2
				c0.6,1.3,0.9,4.2,2.2,6.6c0.5,0.9,1.1,2,1.8,3C332.7,323.1,329,324.5,327.6,322.7z"/>
			<path class="st7" d="M327.6,327.9c-2.6-0.6-2.1-5.2-3.4-9.3c-0.7-2.1-4.8-5.6-5.1-8.1c-0.3-2.5,0.9-3.1,1.7-4.7
				c0.8,1.3,1.4,3.1,1.4,5.9c0,3.8,5,10.4,5.5,11c1.4,1.8,5.1,0.4,6.8-0.4c0.4,0.7,0.8,1.3,1.1,1.7
				C337.7,327.1,332.4,328.9,327.6,327.9z"/>
			<path class="st8" d="M330.6,204.2c0,0-5.6-3.8-9.1-5.2s-7.2-13.8-7.8-15.9c-2.2-7.3-6.3-20.6-6.5-23.7
				c-0.4-7.7,6.8-9.4,12.6-16.5c5.7-7,8-13.8,13.2-15.5c1.4-0.5,4.4,1.2,5.8,0.7c2.5-1.1,2.6-4.3,4.2-8.3s8.8-7.3,7.6-9.1
				c-1.5-2.2-7.3,0.3-10.8,2.7c-3.5,2.3-10.1,5.7-17.2,13.2c-3,3.2-21.7,18.5-27,26.8c-2.5,4,0.4,17.2,1.3,23.8
				c0.9,6.5,9.1,27.4,11.1,31.3c3.4,6.8,9,10.6,9,10.6S333.9,218.1,330.6,204.2z"/>
			<path class="st8" d="M324.2,187.2c-0.6-3.5,3.7-8,5.8-11.1l0,0c0.8,1.1,5.5,1.5,10.5,1.1c1.5-0.1,2.6-0.4,3.5-0.6
				c0.5,0.9,1.2,1.8,2,2.8c7.3,8.7,8.4,11.7,6.7,19.2c-1.2,5.1-0.2,6.4-4.9,13.9c-4.2,6.8-10.3,12.2-10.3,12.2l-9.7-14.6
				c0,0,4.6-1.2,2.6-5.9C328.5,199.6,324.9,191.5,324.2,187.2z"/>
			<path class="st8" d="M332.5,179c0,0-5.9-1.1-9.1-7.8c-3.3-6.7-10.3-14.2-14.5-18.2s-14.6-13.3-14.6-13.3s-2.8-5.3,0-10
				s3.1-12.7-1.3-8.9c-4.4,3.8-7.7,7.3-6.3,13.7c1.4,6.5,3.3,11.6,6.1,13.5c2.8,1.9,9.9,10.7,11.3,11.7s22.4,33.9,22.4,33.9
				S333.8,189.1,332.5,179z"/>
			<path class="st6" d="M332.6,192.1c0,0-1.2-4.4-3.4-5.2c-2.2-0.7-2.9-1.8-3-1.1c-0.5,2.3,1.5,2.3,3,5.2
				C330.1,192.6,332.6,196,332.6,192.1z"/>
			<path class="st6" d="M316.4,212.7c0,0-3.4-0.6-5.1-3.1c-1.7-2.6-5.9-7.5-5.9-7.5s2.6,8.9,7.2,13.1c4.6,4.2,5.5,4.8,5.5,4.8
				l1.7-4.4L316.4,212.7z"/>
			<path class="st10" d="M344.1,216.2c0,0-3.5,8.1-3.2,11.5c0.3,3.5,3.2,6.3,3.2,6.3s-6.6,0-8.1-3.9
				C334.3,226.2,338.6,214.9,344.1,216.2z"/>
			<path class="st10" d="M337.8,229.5c0.5,5.5,1.6,8.5,1.6,8.5s-3.8-1.4-5.9-4c-1,2.9-4.9,5-4.9,5s0.6-3.3,0.3-8.1
				c-1.7,1.8-4.7,3.5-4.7,3.5s-1.6-6.8-1.6-9.7c-1.2,0.8-5.2,3.2-5.2,3.2s-0.6-6-0.1-8c-1.2,0.6-3.2,0-3.2,0s1.1-3.9,4-5.6
				c-1.2-0.2-4.8-2-4.8-2s2.8-3.5,4.8-4.3c-1.6-2.3-2.4-4-2.4-5.5c0-2.1,2.4-8,2.4-8s3.3,1.8,4.6,4.9c3-0.7,4.6,1.7,5.8,3.1
				c1.6-1-3.2-11-3.2-11s6,4.9,8.3-2.8c1.5-4.9-1-9.8,0.2-11.8c5.1,2.2,10.6,0,10.6,0s2.2,2.7,6.7,8.3s2.7,16.8-1.3,24.1
				C344.1,219.7,337.3,224,337.8,229.5z"/>
			<path class="st9" d="M345.5,177.9c0,0-4.7,2-7.8,1.6c-4.1-0.6-8.4-2.5-8.4-2.5l1.7-2.7c0,0,4.9,2.6,6.7,2.6c2.2,0,6-1.6,6-1.6
				L345.5,177.9z"/>
			<path class="st10" d="M328.4,202.6c0,0-2.7,3-2.3,7.3c0.4,4.3,3.3,10.1,3.3,10.1s-5.3-4.6-5.3-10.4c0.1-5.8,2.6-8.8,2.6-8.8
				L328.4,202.6z"/>
			<path class="st10" d="M328.4,202.6c0,0-0.2,5.5,2.2,8.3c2.1,2.5,5,4.2,5,4.2s-3.9,0.2-6.2-2.7
				C326.1,208.2,328.4,202.6,328.4,202.6z"/>
			<path class="st6" d="M330.4,119.5c0,0-0.7,4.1-1,6.2c-0.3,2.2-1.8,0.8-1.8,0.8s0.2,2.8-0.4,3.7c-0.6,1-1.8-2.2-1.8-2.2
				s0.2,2.4-0.9,2.3c-0.6,0-0.4-0.6-0.9-1.4c-0.7,1-1.3,0.9-1.8-0.1c-0.9-1.9-0.4-3.5,0.3-6.4C322.6,120.3,325.8,117.3,330.4,119.5z
				"/>
			<path class="st5" d="M326.2,193.9c0,0,3.8,6.4,9.3,8c5.1,1.5,7.9,0.2,10-3.7c1.5-2.9,2.3-7.7,2.3-7.7s0.9,4.2-1.1,8.8
				c-1.8,4.2-5.9,6.3-11.5,4.3c-4.6-1.7-7.3-5.1-7.3-5.1L326.2,193.9z"/>
			<path class="st5" d="M347.2,185.6c0,0-0.8,3.8-1.5,9.2c-0.5,3.8-4.7,4.9-4.7,4.9s3.7-2.2,4-7.6
				C345.3,187.2,347.2,185.6,347.2,185.6z"/>
			<path class="st5" d="M348.6,182.3c0,0-2.4,1.6-3.5,4.6c-1,2.9-1.6,6-1.6,6s-0.4-4.3,1-7.5s2.9-4.4,2.9-4.4L348.6,182.3z"/>
			<path class="st5" d="M344.9,205.8c0,0-4.3,1.2-7.4,0.3c-3.6-1-6.6-3.5-6.6-3.5s1.7,3.8,5.8,5
				C341.2,208.9,344.9,205.8,344.9,205.8z"/>
			<path class="st5" d="M330,204.4c0,0,1.8,2.9,4.2,4.5c2.4,1.5,6.3,2.6,6.3,2.6s-4.1,0.6-7.1-1.3C330.5,208.2,330,204.4,330,204.4z
				"/>
			<path class="st7" d="M310.4,154.5c0,0-2.5,1.2-6.3,1.2c-2.1,0-4.7-1.1-4.7-1.1s-5.8-5.4-8.2-7.8c-1.8-1.8-3.3-7.9-3.3-7.9
				s2,0.5,4.9,3c4,3.3,6.6,2.5,6.6,2.5L310.4,154.5z"/>
			<path class="st5" d="M308.8,153c0,0-3,0.7-6.6,0c-3.9-0.7-6.6-2.7-6.6-2.7s5.5,1.1,7.3,1.4c1.8,0.3,4.2-0.3,4.2-0.3L308.8,153z"
				/>
			<path class="st5" d="M305.6,150.1c0,0-4.6,0-8.2-0.9c-2.6-0.6-5-1.9-6.2-2.4c-0.4-0.2-1.1-1.6-1.1-1.6s2.8,1.3,5.5,2.1
				c4.4,1.2,8.5,1.3,8.5,1.3L305.6,150.1z"/>
		</g>
		<path class="st6" d="M330,176.1L330,176.1c0.5-0.7,0.8-1.3,1-1.8c1.2-3,0-7.5,0-7.5l10.9,2.3c0,0-0.6,3.1,2,7.5
			c-0.9,0.3-2,0.5-3.5,0.6C335.5,177.7,330.8,177.2,330,176.1z"/>
		<path class="st8" d="M345.5,153.8c4.3,4.5,2.6,20.1-3.8,21.2c-4.1,0.7-10-3-12.1-10.2C327.9,158.6,337.2,145.2,345.5,153.8z"/>
		<path class="st14" d="M347.5,157.5c0,0-5.7,2.8-12.2,1.8c-0.9,0.9-1.2,2.3-1.7,3.7c-3.6-2.3-3.9,1.7-1.9,3.8
			c0.6,1-0.2,2.5-0.2,2.5s-4.6-4.3-3.7-10.7s6.4-11.7,15.4-7.6C346.7,152.6,347.5,157.5,347.5,157.5z"/>
	</g>
	<g>
		<path class="st5" d="M270.7,318.2c0,0-2.1,1.4-3.1,3s-2.9,1.1-1.9-1.2c1-2.2,2.8-3.2,2.8-3.2L270.7,318.2z"/>
		<g>
			<path class="st15" d="M193.4,271.4c0,0,13.8-3.6,18.3-4c2.1-0.2,5.5,0.4,8.6,1c-1.1,1.7-2.7,5.5-0.4,10.7
				c-0.5-0.1-0.9-0.2-1.4-0.3c-6.1-0.9-18-1.6-22.1-0.2c-2.5,0.8-4.9-2-4.9-4.4C191.4,272.8,193.4,271.4,193.4,271.4z"/>
			<path class="st3" d="M220.2,268.5c3.5,0.7,6.4,1.6,6.4,1.6l10.4,2.5c0,0-0.4,7.6-4.1,9c-3.3,1.2-9.1-1.3-13.1-2.3
				C217.5,274,219.1,270.2,220.2,268.5z"/>
			<path class="st15" d="M241.9,193.4c2.8,0.2,5.9,2.3,7.2,4.4c2.2,3.7,2.1,6.1,2.2,9.7c0.1,2.5,0.2,8.4,4.8,10.8
				c2.3,1.2,15.9,12.4,15.9,12.4l-4.1,4.8c0,0-12.9-6.1-15.5-7.3c-3.8-1.7-6.8-6-7.9-8.1c-2.2-4.6-5.7-15.1-5.7-15.1L241.9,193.4z"
				/>
			<path class="st15" d="M239.3,200c0,0,2.1,7.8,1.7,10.4c-0.4,2.6-5.4,7.4-5.4,7.4s-5.6,2.2-9.8-1.5S223,200,223,200l9.7-6.6
				L239.3,200z"/>
			<path class="st9" d="M243.4,254.6c0,0-0.8-6.3-2.9-11.6c-3.9-2-5,4.7-5,4.7L243.4,254.6z"/>
			<path class="st9" d="M219.9,254.7c1.1,7.1-1.5,12.7-1.5,12.7s4.3,4.6,8.9,8.6c5.3,4.6,12.4-2.9,12.4-2.9S226.2,252.6,219.9,254.7
				z"/>
			<path class="st3" d="M219.1,265.8c0,0,3,2.2,4.6,3.5c1.4,1.2,2.9,4,4.8,4.4c1.9,0.5,5.5,0.1,5.5,0.1l-1-2.3c0,0-2.9,0.7-4.2,0.2
				s-2.7-2.7-4.8-4.4c-2.1-1.7-4.4-3.1-4.4-3.1L219.1,265.8z"/>
			<path class="st9" d="M223.7,199.7c0,0,7.9,17.4,13,13.5c5-3.9,3-8.9,3-8.9l3.5-4.7c0,0,0.5,6.6,0,12.1s-4.9,18.4-3.3,20.7
				c3.5,5-0.6,5.9-0.6,5.9l2.7,5c0,0-11.2,8.8-18.4,6.6c-9.5-3-13.7-3.4-13.7-3.4s0-4.5,1.8-7.2c-0.8-8.3-0.9-21,0.8-28
				c1.3-5.5,5.2-9.9,7.4-11.5c5.6-4.1,13.2-6.6,13.2-6.6l-1,2.8L223.7,199.7z"/>
			<path class="st3" d="M241.3,204.1c0,0,0.8,3.4,0.5,5.2c-0.2,1.9-1.7,6.1-4.7,7.7c-3.1,1.6-6.3-0.6-8-3.2
				c-1.7-2.5-5.5-10.3-6.9-11.6c-1.4-1.2-2.2-2.3-2.2-2.3l1-0.7c0,0,1.6,1.2,2.9,2.9s4.6,9.3,6.6,11.4c1.7,1.8,4.2,4.4,6.7,2
				c2.5-2.3,4-4.7,3.8-7s-0.5-4.5-0.5-4.5L241.3,204.1z"/>
			<path class="st16" d="M230.9,194.5c1.4,4.7,6.5,8.4,8.8,9.5c4.3,1.9,12.3-9.2,9.2-18.1c-3-8.5-11.2-7.6-14.6-5
				C231.6,183,229.3,189.2,230.9,194.5z"/>
			<path class="st10" d="M235.1,193.6c0,0-1.6-3.3-3.1-2.3c-1.1,0.7-1.2,3.3-1.2,3.3s-2.7-3.9-1.5-9.2c0.7-3.3,4.9-9,10.6-8.3
				c7.5,0.8,10.5,7.8,9.6,11.8c-0.9-2.9-3.7-3.7-7.3-2.8C236,187.5,235.1,193.6,235.1,193.6z"/>
			<path class="st16" d="M219.1,203.6c5.4,1.6,6,9.1,5.6,11.9c-0.4,2.4-1.4,5.6-2.9,7c-1.5,1.5-7.4-0.5-8-4.2
				C213.2,214.7,213.4,202,219.1,203.6z"/>
			<path class="st16" d="M208.9,206c-4.9,3.6-11.1,4-14.2,6.3c-3.4,2.6-6.1,4.2-5.2,6c1.5,3.2,1.9,7,3.8,10.5c3,5.6,3.8,8.3,4.1,9.4
				c0.5,1.6-1.3,4.5-1.3,7.7c0,2.9,2.2,8.6,4.1,11.1c1.3,1.7,3.6-1.9,3.1-4.4s0.3-8.5,0.3-8.5s1.7,0.7,3.4,2.2
				c1.3,1.2,2.2,0.2,0.5-1.8c-1.4-1.6-4-4.7-4.8-6.9c-0.7-1.9-1-6.7-0.9-8.7c0.3-5.8-2.9-8.2-2.9-8.2s5.7,1.2,9.9-0.3
				c2.1-0.7,8.9-1.2,8.9-1.2l2.3-15.1C220.2,204.2,216.1,200.8,208.9,206z"/>
			<path class="st16" d="M225.5,263.7l22.7-1.3c0,0,0.6,2.8,1.8,5.4c1,2.2,1.6,5,2.2,7.5c-0.9,1.1-2.4,2.7-4.2,3.8
				c-1.5,0.9-5.5,1.3-7.3,1.4C235.6,273.6,225.5,263.7,225.5,263.7z"/>
			<path class="st16" d="M251.7,293.8c3-0.6,4.7-4.2,5.4-6.1c1,2.8,1.8,6.1,2.2,9.2c0.4,4.1,3.9,17.5,5.3,19.3s-6.8,2.6-6.8,2.6
				s-4.9-11.8-8.6-16.2c-1.9-2.3-2.9-5.4-3.7-8.6C246.5,294.2,248.6,294.4,251.7,293.8z"/>
			<path class="st15" d="M250.2,293.8l2,7.6c0,0-2.7-1.7-3.3-4.5c-0.7-2.8-1.1-3.2-1.1-3.2h2.4V293.8z"/>
			<path class="st3" d="M252.2,275.3c0.6,2.8,1.1,5.3,1.9,6.3c0.8,1,1.9,3.3,2.9,6.1c-0.7,1.9-2.4,5.5-5.4,6.1s-5.2,0.4-6.2,0.2
				c-0.7-3-1.2-6.2-2-8.9c-0.4-1.2-1.4-2.8-2.7-4.6c1.8-0.1,5.9-0.5,7.3-1.4C249.8,277.9,251.3,276.3,252.2,275.3z"/>
			<path class="st9" d="M237,237.4c0,0,3.7,13.8,4,14.1c5.1,5.7,12.7,14,13.1,14.6c-3.9,4.3-1.7,4.4-5.7,7.5
				c-7.7,6.1-16.5,1.4-16.5,1.4s-1.2-5-6.4-11.2s-11.4-7.3-13-13c-1.8-6.3,0-16.3,0-16.3L237,237.4z"/>
			<path class="st9" d="M240.3,244.8c0,0-5.8,3.2-9.9,4.5c-4.1,1.3-9.7-0.3-12.7-1s-5.8-1.3-5.8-1.3s0.1,2.1,0.7,3.8
				c1.8-0.3,4.4-0.4,6.6,0c2.2,0.4,8,1.2,10.9,0.3C239.2,248.1,240.3,244.8,240.3,244.8z"/>
			<path class="st3" d="M262.9,312.4c0,0,4.4,3.7,6.4,4.9c2,1.2,5.1,3.5,7.6,4.8c2.6,1.3,3.7,3.2,3.2,4.3c-0.9,2-3,3.8-6.4,3.8
				c-1.8,0-5.6-3.1-8.5-4.1s-7.4-2.6-8.2-4.4c-1.5-3.5-1.7-5.2-1.3-6.8c0.6-0.3,2,1.4,2.7,0.5C260,313.4,261.2,312.4,262.9,312.4z"
				/>
			<path class="st5" d="M267.1,315.8c0,0-2.2,0.7-3.2,2.3c-1,1.6-2.9,1.3-1.9-1c1-2.2,3.1-2.9,3.1-2.9L267.1,315.8z"/>
			<path class="st2" d="M280.1,325.1c0,0-1.9-0.9-2.9,0.6c-1,1.4-1.9,3.1-2.8,3.4s-5.2-1.7-7.5-2.9c-2.4-1.2-6-1.9-7.5-4
				c-1-1.4-3.2-2.9-3.2-2.9s-0.2,2.5,0.9,3.7c1,1.2,2.3,2.1,4,2.2c0.7,0,4.7,1.2,6.6,2.4c1,0.6,3.9,3,6.5,3.4
				C277.4,331.5,282.6,328.3,280.1,325.1z"/>
			<path class="st2" d="M263.8,313.1V311c0,0-1.5-0.6-3.7,0.6c-1.2,0.7-2.5,2.5-2.5,2.5l0.5,1.5
				C258.1,315.7,260.5,317.5,263.8,313.1z"/>
			<path class="st3" d="M197.5,278.8c0,0-1.7,2.6-3.3,3.9c-2.7,2.2-2.9,8.4-4.1,10.3c-1.3,2-4,0.9-4,0.9s-3.7-6.1-1-13.4
				c0.8-2.2-0.4-5.6,0.2-7.1c0.9-2.4,2.3-3.8,2.3-3.8s7.2-0.2,7.7,1.6c0.2,0.7-2,1.5-2.3,2.7c-0.1,0.4,0,0.8,0.5,1.3
				C195.4,277.3,197.5,278.8,197.5,278.8z"/>
			<path class="st2" d="M188.7,269.5c0,0-1.4,2-2,3.4c-0.5,1.2-0.2,3.4-0.4,5.3c-0.3,2.5-1.2,5.3-1.4,5.9c-0.2,0.9-0.1,5.1,1.1,7
				c0.5,0.9,3.6,0.7,4,1.7c0.3,1-1.8,1.2-3.3,1.3c-2.3,0-3.8-5.5-3.2-9.7s1.9-5.4,1.4-7s-1.7-2.9-0.3-5.4
				C186,269.7,185.9,269.4,188.7,269.5z"/>
			<path class="st5" d="M194.7,282.1c-0.3-0.5-1.1-1.3-2-1.9c-1-0.8-2.3,0.1-1.3,0.9c1.2,1,2.4,1.8,2.4,1.8L194.7,282.1z"/>
			<path class="st5" d="M193.1,283.9c0,0-1.5-0.8-2.4-1.3c-0.8-0.5-1.9,0.6-0.7,1.3s2.4,1.3,2.4,1.3L193.1,283.9z"/>
			<path class="st5" d="M192,286.5c0,0-1.7-0.9-2.5-1.3c-0.8-0.3-1.6,0.7-0.5,1.3s2.6,1.2,2.6,1.2L192,286.5z"/>
			<path class="st2" d="M196.2,280.4c0,0,2.3-0.9,2.6-1.6c0.4-0.7,0.2-1.8-1.4-2.4c-1.6-0.6-4.1-1.3-4.1-1.3
				S193.7,278.9,196.2,280.4z"/>
			<path class="st3" d="M252.2,263.8c0,0-1.9,2.7-3.9,6.2c-1.7,3-6,3.9-8.8,3.4c-2.7-0.5-8.3-0.5-8.3-0.5l-0.9-2
				c0,0,7.3,0.9,9.5,0.5s5.9,0,7.7-2.9c2.1-3.3,3.4-6.1,3.4-6.1L252.2,263.8z"/>
			<path class="st3" d="M241.3,242.1c0,0-4.5,2.9-7.3,4.1c-2.8,1.2-5.5,2.8-9.6,1.9c-4.2-0.9-14.3-2.9-14.3-2.9l0.1-1.1
				c0,0,6.1,0.9,9.8,1.8c2.7,0.7,5.9,2.4,11.8-0.2c4.1-1.8,9-4.6,9-4.6L241.3,242.1z"/>
			<path class="st4" d="M265.9,234c-0.1,0.7-0.2,1.4-0.2,2.1c0,6.7,5.5,12.2,12.2,12.2c4,0,7.5-1.9,9.8-4.9c-1,5.8-6,10.1-12,10.1
				c-6.7,0-12.2-5.5-12.2-12.2C263.5,238.6,264.4,236,265.9,234z"/>
			<path class="st2" d="M277.9,248.3c-6.7,0-12.2-5.5-12.2-12.2c0-0.7,0.1-1.4,0.2-2.1c2.2-3,5.8-4.9,9.8-4.9
				c6.7,0,12.2,5.5,12.2,12.2c0,0.7-0.1,1.4-0.2,2.1C285.5,246.3,281.9,248.3,277.9,248.3z"/>
			<path class="st3" d="M282.6,231.2c0,0-6.5,5.7-9.3,12s-3.6,8.6-3.6,8.6l-0.4-0.2c0,0,1.4-5.1,4.7-11.1c2.9-5.3,8.3-9.5,8.3-9.5
				L282.6,231.2z"/>
			<path class="st3" d="M286,234.8c0,0-3.9,0.3-4.7,5.3c-0.7,4-0.1,7.7-1.8,10.2c-1.7,2.6-3.8,3.1-3.8,3.1h-0.5c0,0,3.6-1.9,4.6-4.8
				c1-3,0-9.6,2.7-12.6c1.5-1.7,3.3-1.6,3.3-1.6L286,234.8z"/>
			<path class="st3" d="M278,229.3c0,0-0.3,3.6-3.5,4.5c-1.3,0.3-4.6,0-6.3,1.8c-3.2,3.3-3.7,10.5-3.7,10.5l-0.3-0.8
				c0,0,0-4.8,2.6-8.6c2.3-3.4,4.1-3,7.1-3.3c2.8-0.3,3.7-4.1,3.7-4.1L278,229.3z"/>
		</g>
	</g>
</g>
</svg>
